<?xml version="1.0" standalone="no"?>
<!DOCTYPE svg PUBLIC "-//W3C//DTD SVG 20010904//EN"
 "http://www.w3.org/TR/2001/REC-SVG-20010904/DTD/svg10.dtd">
<svg version="1.0" xmlns="http://www.w3.org/2000/svg"
 width="2048.000000pt" height="2048.000000pt" viewBox="0 0 2048.000000 2048.000000"
 preserveAspectRatio="xMidYMid meet">
<metadata>
Created by potrace 1.16, written by Peter Selinger 2001-2019
</metadata>
<g transform="translate(0.000000,2048.000000) scale(0.100000,-0.100000)"
fill="#000000" stroke="none">
<path d="M2176 18878 c-12 -17 -13 -25 -3 -36 10 -13 9 -14 -10 -4 -19 11 -22
9 -32 -20 -8 -21 -8 -35 -1 -42 14 -14 12 -26 -4 -26 -11 0 -12 -5 -3 -25 7
-14 18 -25 25 -25 6 0 12 -4 12 -10 0 -5 -13 -10 -30 -10 -20 0 -30 -5 -30
-15 0 -8 5 -15 10 -15 6 0 10 5 10 10 0 6 5 10 11 10 8 0 8 -4 -1 -15 -6 -8
-8 -20 -4 -26 4 -7 9 -24 10 -38 7 -57 9 -67 22 -79 7 -8 9 -18 6 -24 -4 -6
-2 -8 4 -4 6 3 13 2 17 -4 3 -5 1 -10 -5 -10 -6 0 -9 -4 -6 -9 3 -5 -3 -11
-15 -14 -17 -5 -18 -3 -7 11 11 14 10 15 -5 9 -11 -4 -16 -3 -12 3 3 6 1 10
-4 10 -6 0 -11 7 -11 16 0 8 -4 13 -8 10 -5 -3 -8 5 -7 17 3 32 -15 55 -37 49
-19 -5 -26 -32 -7 -32 5 0 7 4 4 10 -3 6 1 7 10 3 9 -3 13 -9 8 -12 -14 -11
-36 -54 -22 -46 7 5 10 3 7 -6 -3 -8 3 -29 13 -46 11 -20 14 -33 8 -33 -7 0
-4 -11 6 -26 9 -15 15 -37 12 -51 -3 -17 -1 -21 6 -14 17 17 33 13 33 -8 0
-13 -6 -17 -21 -13 -20 4 -20 4 0 -11 11 -8 23 -13 27 -11 5 3 8 1 8 -5 0 -5
-8 -15 -17 -21 -13 -8 -14 -13 -5 -16 6 -3 10 -11 6 -17 -3 -7 2 -3 12 8 15
18 16 18 10 2 -3 -10 -6 -23 -6 -28 0 -5 -7 -9 -15 -9 -8 0 -15 -4 -15 -9 0
-5 9 -7 20 -4 12 3 20 0 20 -6 0 -7 5 -9 11 -5 8 5 8 1 0 -14 -6 -11 -16 -23
-23 -25 -7 -3 -3 -6 8 -6 27 -1 33 -15 27 -69 -2 -25 0 -42 7 -42 11 0 14 -33
3 -44 -4 -3 -8 -15 -10 -26 -2 -13 2 -18 11 -14 15 6 43 -33 32 -43 -3 -4 -2
-11 3 -17 4 -6 14 -33 21 -61 8 -27 21 -57 30 -65 9 -8 14 -23 12 -33 -2 -12
3 -20 17 -24 14 -3 21 -13 21 -29 0 -13 5 -24 11 -24 8 0 8 -5 -1 -15 -10 -12
-9 -16 6 -22 27 -10 34 -24 22 -46 -6 -11 -6 -17 0 -14 5 4 14 -5 21 -20 10
-21 9 -28 -1 -34 -9 -6 -8 -10 5 -15 10 -4 16 -13 13 -20 -3 -8 -1 -14 4 -14
6 0 10 -7 10 -15 0 -9 8 -19 18 -23 9 -4 18 -16 18 -27 3 -34 10 -64 17 -71 4
-4 7 -16 7 -26 0 -10 6 -21 14 -24 8 -3 18 -19 21 -35 4 -16 12 -35 18 -42 21
-22 37 -56 37 -76 0 -11 5 -23 10 -26 6 -3 10 -17 10 -30 0 -13 4 -25 10 -27
5 -1 11 -13 13 -26 2 -12 9 -28 15 -34 7 -7 12 -16 12 -20 0 -8 35 -48 99
-117 14 -14 26 -21 28 -14 2 6 13 9 23 6 14 -4 20 0 20 11 0 9 8 16 20 16 10
0 24 8 29 18 10 16 10 16 11 0 0 -10 5 -18 11 -18 5 0 7 5 4 10 -6 9 8 15 29
11 12 -2 36 32 31 46 -2 6 7 19 21 28 19 12 24 23 22 50 -2 29 -5 34 -20 29
-20 -6 -26 20 -8 31 6 4 8 10 5 15 -3 4 2 13 9 19 8 7 13 22 11 34 -16 118
-17 121 -2 108 8 -6 20 -25 27 -41 7 -17 18 -30 24 -30 22 1 46 27 40 44 -5
14 -3 15 20 6 24 -9 26 -7 26 15 0 14 5 25 10 25 6 0 10 -7 10 -16 0 -17 27
-43 45 -44 6 0 3 5 -5 10 -8 5 -10 10 -4 10 8 0 9 11 4 35 -4 19 -6 35 -4 35
3 0 0 9 -6 20 -8 16 -8 20 4 20 7 0 13 8 12 18 0 9 5 16 12 14 10 -2 11 4 7
19 -5 15 -4 19 4 15 6 -4 11 -14 11 -23 0 -11 5 -9 19 8 11 13 15 26 10 27 -6
2 -4 11 3 20 10 12 10 14 1 8 -18 -10 -35 2 -23 17 52 65 57 70 64 59 4 -7 1
-12 -8 -12 -18 0 -20 -8 -7 -28 7 -12 12 -12 30 -1 11 8 21 19 21 26 0 7 7 10
15 7 11 -5 15 -19 13 -53 -3 -39 0 -46 15 -45 17 2 17 1 1 -17 -22 -24 -26
-59 -7 -66 7 -3 13 -12 13 -20 0 -8 4 -11 10 -8 5 3 9 16 9 28 -1 22 4 51 16
87 4 11 12 17 20 13 9 -3 17 2 21 13 3 11 10 27 15 36 5 10 9 27 9 39 0 16 -4
20 -17 15 -13 -6 -12 -1 5 17 19 20 21 28 13 50 -6 15 -14 27 -19 27 -18 0 -8
29 14 39 24 10 24 29 1 59 -5 6 -6 12 -1 12 4 0 3 5 -4 12 -8 8 -19 4 -43 -20
-38 -37 -45 -39 -52 -12 -3 11 -1 18 4 14 5 -3 9 0 9 5 0 6 3 10 8 10 19 -3
39 3 59 20 21 18 22 20 7 50 -8 17 -20 31 -25 31 -6 0 -6 7 -1 18 10 18 0 56
-17 66 -16 10 -41 68 -34 79 3 6 1 7 -6 3 -17 -11 -26 23 -12 45 6 11 7 19 2
19 -5 0 -18 3 -28 7 -15 6 -16 4 -6 -9 7 -8 10 -18 6 -21 -10 -11 -21 -8 -20
6 1 47 -4 57 -30 57 -14 0 -24 3 -21 6 4 3 -7 18 -23 33 -32 31 -37 65 -15 90
11 12 12 21 5 31 -9 13 -10 13 -6 0 5 -22 -21 -46 -35 -32 -8 8 -7 13 5 18 9
3 17 11 17 17 0 7 -4 7 -12 -1 -7 -7 -21 -12 -32 -12 -10 0 -16 3 -13 7 4 3
-2 13 -13 20 -11 8 -18 18 -15 23 3 5 0 12 -6 15 -6 4 -8 18 -5 30 3 13 2 27
-4 30 -5 3 -7 0 -4 -8 11 -30 -22 -24 -35 5 -8 17 -22 33 -32 35 -10 3 -16 9
-13 14 3 5 -2 9 -11 9 -9 0 -15 6 -12 13 2 6 11 11 20 11 12 -1 14 4 8 20 -9
24 -48 30 -43 6 3 -11 -2 -10 -17 4 -25 22 -26 27 -7 20 8 -3 17 -1 21 5 3 6
-2 12 -12 13 -10 0 -23 2 -30 2 -7 1 -18 7 -25 14 -6 6 -18 12 -25 12 -7 0
-13 5 -13 10 0 6 5 10 12 10 6 0 8 3 5 6 -4 4 -13 1 -22 -6 -13 -10 -15 -9
-15 9 0 12 -4 19 -10 16 -6 -3 -13 1 -16 10 -5 13 -9 13 -22 3 -12 -11 -16
-11 -20 0 -9 29 -45 52 -71 46 -63 -14 -131 -37 -131 -46 0 -5 -4 -7 -9 -4
-15 10 -43 -6 -37 -20 3 -8 1 -14 -4 -14 -6 0 -10 6 -10 13 0 8 -3 8 -9 -2
-14 -21 -37 -7 -63 38 -13 23 -27 41 -31 41 -5 0 -5 -4 -2 -10 3 -5 1 -10 -4
-10 -6 0 -11 5 -11 11 0 7 -10 22 -22 35 -54 54 -62 65 -65 85 -3 19 -23 53
-58 97 -40 52 -85 65 -109 30z"/>
<path d="M15624 16689 c3 -13 3 -18 0 -11 -3 6 -9 10 -14 7 -5 -3 -19 -1 -32
4 -16 6 -33 3 -57 -10 -27 -14 -38 -16 -55 -7 -31 17 -73 11 -121 -17 -23 -14
-50 -25 -59 -25 -10 0 -14 -5 -10 -12 5 -8 -2 -9 -24 -5 -21 4 -37 1 -54 -12
-32 -25 -59 -34 -89 -32 -14 1 -31 -5 -39 -13 -7 -9 -20 -16 -29 -16 -9 0 -29
-7 -44 -15 -15 -8 -34 -12 -43 -8 -8 3 -31 -6 -52 -19 -20 -13 -45 -27 -55
-31 -10 -4 -15 -11 -12 -17 3 -5 1 -10 -4 -10 -6 0 -11 5 -11 10 0 17 -14 11
-43 -16 -18 -17 -35 -24 -48 -21 -12 3 -28 -2 -38 -11 -9 -9 -26 -18 -36 -20
-61 -8 -79 -14 -134 -42 -34 -18 -63 -35 -66 -40 -2 -4 -18 -7 -35 -8 -41 -1
-91 -24 -86 -39 7 -18 -3 -21 -40 -13 -26 6 -34 5 -34 -6 0 -13 -12 -18 -32
-15 -5 0 -8 -4 -8 -9 0 -6 -7 -10 -16 -10 -8 0 -13 -4 -10 -9 6 -9 -18 -19
-64 -28 -14 -2 -32 -11 -41 -19 -8 -7 -31 -17 -50 -21 -19 -3 -39 -13 -45 -21
-6 -9 -18 -13 -27 -9 -11 4 -17 -2 -22 -21 -4 -15 -10 -21 -12 -14 -6 16 -38
15 -55 -1 -7 -8 -21 -13 -31 -11 -9 1 -17 -1 -17 -6 0 -5 -16 -7 -35 -6 -19 2
-33 0 -31 -3 2 -3 -2 -12 -10 -19 -8 -7 -14 -10 -14 -6 0 4 -9 -3 -19 -15 -11
-12 -21 -22 -23 -21 -6 3 -63 -21 -100 -41 -21 -11 -43 -17 -50 -13 -7 5 -8 3
-3 -6 6 -10 2 -11 -19 -6 -18 4 -25 3 -21 -3 3 -6 -6 -13 -20 -17 -14 -3 -25
-10 -25 -15 0 -5 -5 -9 -12 -9 -6 0 -20 -8 -30 -17 -12 -11 -33 -16 -58 -15
-29 2 -44 -2 -57 -18 -10 -11 -23 -20 -30 -20 -7 0 -13 -4 -13 -10 0 -14 -27
-12 -33 3 -4 9 -8 9 -14 0 -4 -6 -21 -15 -36 -18 -15 -4 -27 -14 -27 -22 0
-10 -6 -12 -20 -8 -11 4 -20 2 -20 -4 0 -6 -12 -11 -26 -11 -24 0 -25 -2 -13
-17 12 -16 12 -16 -7 0 -19 16 -22 16 -27 2 -4 -8 -2 -15 3 -15 6 0 0 -10 -11
-21 -18 -18 -25 -20 -41 -10 -16 10 -23 9 -36 -1 -11 -9 -14 -10 -8 -1 5 9 2
11 -8 7 -9 -3 -16 -12 -16 -19 0 -7 -7 -18 -15 -25 -10 -8 -15 -9 -15 -2 0 6
-7 9 -15 6 -8 -4 -12 -10 -9 -15 3 -5 0 -9 -5 -9 -6 0 -11 8 -11 18 0 14 -2
14 -9 3 -5 -8 -16 -11 -24 -8 -17 6 -57 -23 -57 -43 0 -7 -7 -10 -15 -6 -8 3
-15 2 -15 -3 0 -4 -11 -6 -25 -3 -17 3 -25 0 -25 -10 0 -17 -37 -36 -62 -33
-9 2 -19 -4 -22 -12 -4 -9 -13 -12 -25 -8 -11 3 -22 1 -26 -5 -3 -6 -10 -8
-15 -5 -4 3 -13 -2 -20 -10 -7 -8 -20 -15 -30 -15 -10 0 -20 -7 -24 -15 -3 -8
-12 -12 -21 -9 -8 3 -15 2 -15 -4 0 -15 -66 -43 -84 -36 -11 4 -16 1 -16 -11
0 -9 -4 -14 -9 -10 -5 3 -12 1 -16 -5 -4 -6 -10 -8 -15 -5 -5 3 -14 -4 -21
-16 -7 -15 -13 -18 -18 -10 -9 13 -54 0 -66 -18 -3 -6 -17 -11 -30 -11 -13 0
-30 -9 -38 -20 -8 -11 -16 -17 -20 -14 -3 3 -16 0 -29 -7 -12 -7 -28 -12 -34
-11 -5 1 -20 -7 -32 -18 -19 -18 -47 -33 -77 -40 -5 -2 -16 -11 -23 -22 -7
-10 -17 -16 -22 -13 -5 3 -11 -3 -15 -14 -3 -11 -13 -25 -22 -33 -10 -7 -14
-8 -10 -1 4 6 1 13 -5 16 -17 5 -70 -32 -63 -44 4 -5 -3 -9 -14 -9 -12 0 -21
-4 -21 -10 0 -5 -4 -10 -10 -10 -5 0 -7 7 -4 15 8 21 2 19 -32 -10 -16 -14
-39 -25 -51 -25 -13 0 -23 -5 -23 -11 0 -5 -5 -7 -12 -3 -8 5 -9 0 -5 -15 5
-20 3 -22 -26 -16 -24 5 -28 4 -17 -4 13 -9 13 -11 -2 -11 -9 0 -20 5 -23 10
-3 6 -11 10 -17 10 -6 0 -8 -3 -5 -7 9 -9 -13 -34 -24 -27 -5 3 -21 -3 -37
-14 -15 -11 -33 -17 -39 -15 -7 3 -13 -2 -13 -10 0 -9 -7 -14 -17 -13 -36 6
-112 -32 -96 -47 3 -3 -3 -5 -14 -4 -29 2 -98 -44 -81 -54 10 -7 9 -9 -4 -9
-10 0 -18 5 -18 12 0 6 -8 3 -20 -7 -11 -10 -17 -21 -15 -25 3 -4 -2 -13 -10
-20 -13 -11 -14 -10 -8 5 5 15 3 17 -11 12 -10 -4 -29 -10 -42 -13 -13 -3 -24
-11 -24 -16 0 -6 -7 -8 -15 -4 -8 3 -15 1 -15 -4 0 -5 -9 -11 -19 -15 -10 -3
-21 -15 -24 -26 -4 -15 -11 -19 -25 -14 -11 3 -23 1 -27 -5 -3 -5 -15 -10 -25
-10 -10 0 -25 -9 -33 -20 -8 -11 -17 -17 -20 -13 -4 3 -7 -2 -7 -12 0 -14 -3
-15 -14 -6 -10 8 -16 9 -21 1 -3 -6 -10 -8 -15 -5 -4 3 -11 -2 -14 -11 -3 -8
-10 -12 -16 -9 -5 3 -10 1 -10 -5 0 -6 -5 -8 -12 -4 -8 5 -9 2 -5 -10 5 -12 3
-16 -5 -14 -7 3 -19 -1 -26 -9 -7 -7 -24 -13 -36 -13 -13 0 -39 -14 -59 -32
-20 -18 -46 -32 -59 -33 -13 0 -41 -11 -63 -24 -22 -14 -46 -24 -52 -22 -12 2
-17 -11 -14 -31 0 -4 -8 -5 -19 -3 -11 2 -23 -2 -27 -8 -5 -7 -15 -12 -23 -13
-8 -1 -30 -4 -47 -8 -22 -5 -33 -4 -33 4 0 6 8 10 18 8 11 -2 17 3 16 14 -1
11 9 19 28 23 19 5 28 12 24 21 -3 7 -1 16 4 19 6 4 10 1 10 -6 0 -7 2 -10 5
-7 3 3 3 13 -1 22 -7 17 -34 22 -34 6 0 -6 -10 -15 -22 -19 -17 -7 -26 -5 -35
7 -8 9 -13 11 -13 4 0 -7 -5 -12 -11 -12 -5 0 -7 6 -3 13 4 6 3 9 -1 4 -5 -4
-10 -17 -12 -30 -5 -31 -21 -44 -29 -24 -9 23 -17 21 -48 -10 -17 -16 -25 -34
-23 -45 7 -24 -10 -23 -23 2 -6 11 -18 20 -26 20 -8 0 -13 4 -10 9 4 5 -3 7
-14 4 -19 -5 -19 -6 -3 -18 16 -12 16 -14 -2 -41 -15 -22 -20 -25 -23 -13 -2
11 -10 15 -21 12 -20 -5 -54 -57 -44 -67 3 -3 1 -6 -6 -6 -8 0 -10 11 -5 34 6
34 -1 39 -36 26 -3 -1 -13 -1 -24 0 -15 1 -17 -3 -12 -23 5 -20 2 -26 -18 -31
-14 -3 -32 -3 -41 1 -14 5 -16 2 -10 -17 6 -18 4 -22 -8 -17 -11 4 -20 -3 -29
-24 -14 -31 -28 -38 -28 -15 0 8 -4 17 -9 20 -5 3 -8 -2 -7 -11 0 -9 -5 -18
-13 -21 -10 -3 -12 0 -8 12 4 10 1 16 -8 16 -8 0 -17 -11 -21 -24 -3 -14 -12
-27 -21 -30 -8 -3 -12 -10 -9 -15 9 -13 -44 -24 -59 -11 -15 12 -33 -5 -38
-38 -3 -22 -17 -43 -17 -26 0 6 -7 19 -16 30 -14 17 -15 18 -10 1 8 -26 -3
-41 -20 -26 -8 6 -14 8 -14 4 0 -4 -6 -2 -14 4 -11 9 -12 6 -8 -14 3 -20 1
-24 -12 -19 -11 4 -16 1 -16 -12 0 -11 -4 -15 -8 -9 -8 12 -53 15 -46 3 3 -4
12 -8 20 -8 8 0 12 -4 9 -10 -3 -5 -17 -10 -30 -10 -18 0 -27 -8 -36 -35 -10
-25 -16 -32 -25 -24 -9 7 -15 5 -21 -6 -5 -9 -16 -18 -24 -19 -29 -6 -49 -18
-43 -27 3 -5 -6 -9 -20 -9 -16 0 -26 -6 -26 -15 0 -8 -3 -15 -7 -16 -5 0 -21
-2 -38 -5 -16 -2 -39 -4 -50 -4 -12 -1 -15 -4 -8 -8 8 -5 8 -12 -3 -26 -8 -11
-14 -16 -14 -12 0 5 -6 3 -14 -3 -9 -7 -17 -8 -20 -2 -3 5 -2 11 4 13 6 2 0 9
-12 17 -20 13 -22 12 -11 -1 15 -17 7 -29 -13 -21 -9 3 -14 -2 -14 -16 0 -22
-16 -29 -22 -9 -3 8 -9 8 -24 0 -10 -6 -13 -12 -6 -12 9 0 10 -4 0 -19 -7 -12
-21 -18 -38 -17 -23 2 -26 -1 -22 -24 2 -18 1 -21 -6 -11 -10 14 -36 6 -27 -9
3 -4 -4 -10 -15 -13 -11 -3 -18 -1 -14 4 3 5 -2 6 -11 3 -9 -4 -14 -13 -11
-21 4 -10 1 -13 -13 -8 -12 3 -21 0 -25 -10 -3 -8 -12 -15 -21 -15 -18 0 -20
-16 -2 -23 6 -3 -4 -6 -24 -6 -39 -1 -84 -33 -92 -66 -4 -18 -5 -18 -6 -1 -1
13 -6 16 -18 11 -10 -4 -22 -8 -28 -9 -21 -4 -34 -17 -29 -31 7 -16 -30 -34
-62 -32 -10 1 -18 -3 -17 -9 1 -8 -11 -11 -32 -10 -37 1 -42 -3 -23 -22 9 -9
8 -12 -5 -12 -9 0 -17 -7 -17 -15 0 -8 -7 -15 -15 -15 -8 0 -15 -4 -15 -10 0
-15 -16 -12 -34 6 -19 18 -22 4 -3 -15 10 -11 8 -13 -10 -8 -13 3 -23 1 -23
-4 0 -5 -5 -9 -12 -9 -6 0 -19 -7 -29 -16 -18 -16 -44 -11 -34 7 4 5 1 9 -4 9
-6 0 -11 -6 -11 -14 0 -23 -30 -47 -51 -41 -13 4 -19 2 -19 -9 0 -9 -7 -16
-16 -16 -11 0 -14 -5 -10 -16 4 -12 2 -15 -9 -10 -9 3 -15 0 -15 -10 0 -10 -6
-14 -14 -11 -8 3 -17 -1 -20 -10 -4 -8 -12 -13 -20 -10 -17 7 -36 -11 -29 -28
2 -7 -5 -16 -16 -20 -12 -3 -21 -11 -21 -16 0 -6 -4 -7 -10 -4 -5 3 -10 -1
-10 -9 0 -9 -4 -15 -9 -14 -5 2 -16 -6 -24 -16 -14 -19 -15 -19 -32 -2 -17 16
-18 16 -29 -6 -6 -12 -20 -24 -30 -26 -13 -3 -16 0 -11 10 3 7 -2 3 -13 -9
-11 -13 -25 -23 -31 -23 -6 0 -11 -5 -11 -11 0 -6 -9 -8 -21 -4 -16 5 -19 4
-14 -5 4 -7 1 -16 -6 -21 -20 -13 -29 -11 -29 6 0 8 -6 12 -13 9 -8 -3 -11
-17 -9 -39 3 -21 0 -35 -7 -35 -6 0 -8 7 -5 15 5 11 -2 15 -26 15 -28 0 -31
-2 -20 -16 11 -12 11 -15 -1 -12 -8 2 -13 -4 -13 -14 1 -12 -5 -15 -21 -12
-15 3 -25 -2 -29 -12 -4 -10 -12 -14 -22 -10 -10 4 -14 1 -12 -6 3 -7 -9 -23
-25 -37 -24 -20 -30 -22 -38 -10 -6 10 -9 10 -9 2 0 -7 -5 -13 -11 -13 -18 0
-69 -47 -61 -56 4 -5 0 -3 -8 2 -18 13 -50 14 -50 2 0 -4 7 -8 15 -8 8 0 15
-4 15 -10 0 -9 -8 -12 -26 -9 -3 1 -18 -11 -33 -25 -15 -15 -30 -24 -32 -21
-3 2 -19 -8 -36 -24 -18 -16 -34 -26 -37 -23 -3 3 -6 0 -6 -6 0 -7 -6 -12 -13
-12 -7 0 -18 -9 -25 -21 -9 -14 -19 -18 -34 -13 -16 5 -20 3 -15 -9 4 -12 -1
-13 -29 -7 -25 6 -34 5 -31 -3 3 -7 10 -11 16 -9 6 1 11 -2 11 -8 0 -5 -7 -10
-15 -10 -8 0 -15 -7 -15 -15 0 -13 -7 -15 -35 -9 -23 4 -35 2 -35 -5 0 -6 10
-11 23 -12 15 0 17 -2 7 -6 -8 -3 -18 -11 -22 -17 -4 -6 -13 -12 -20 -12 -7
-1 -19 -2 -26 -3 -6 0 -11 -7 -10 -13 3 -14 -16 -15 -44 -3 -13 5 -16 0 -15
-27 2 -23 -3 -33 -13 -34 -8 -1 -21 -2 -28 -3 -7 0 -10 -6 -6 -13 5 -8 2 -9
-9 -5 -10 3 -17 2 -17 -4 0 -6 -8 -6 -21 2 -18 9 -20 8 -15 -9 4 -12 0 -24
-10 -33 -13 -11 -18 -11 -21 -1 -3 6 -14 11 -26 11 -17 -1 -18 -2 -4 -6 32 -8
12 -53 -24 -53 -10 0 -19 -11 -22 -29 -7 -31 -31 -37 -48 -10 -7 11 -9 9 -9
-7 0 -12 -7 -27 -15 -34 -8 -7 -15 -9 -15 -4 0 4 -6 -1 -14 -12 -12 -15 -17
-17 -27 -6 -7 6 -17 12 -21 12 -13 0 -9 -28 5 -33 7 -3 5 -6 -5 -6 -10 -1 -18
-5 -18 -11 0 -5 -7 -10 -15 -10 -8 0 -15 -5 -15 -10 0 -19 -24 -37 -42 -32
-10 2 -18 -1 -18 -7 0 -6 -9 -11 -20 -11 -13 0 -22 -9 -26 -26 -4 -17 -11 -23
-21 -20 -9 4 -17 -1 -20 -14 -3 -12 -12 -19 -22 -18 -11 2 -15 -3 -13 -16 3
-17 2 -18 -12 -7 -9 8 -20 11 -23 7 -4 -4 -1 -11 6 -15 11 -7 9 -13 -7 -29
-12 -12 -24 -17 -27 -12 -11 18 -27 11 -20 -9 8 -27 -4 -49 -24 -44 -9 2 -23
-3 -31 -11 -10 -13 -15 -14 -28 -4 -13 11 -15 10 -10 -9 6 -23 -1 -28 -32 -23
-11 1 -10 -3 4 -13 19 -14 18 -14 -5 -20 -43 -12 -54 -23 -40 -41 9 -11 10
-16 2 -16 -6 0 -11 4 -11 8 0 4 -10 8 -21 8 -13 0 -45 -23 -76 -53 -30 -29
-59 -53 -64 -53 -6 0 -9 -14 -7 -32 2 -19 -2 -33 -9 -35 -8 -3 -13 4 -13 17 0
12 -4 18 -10 15 -5 -3 -10 -15 -10 -26 0 -25 -79 -101 -97 -94 -8 2 -11 0 -8
-5 3 -5 -3 -18 -15 -30 -24 -24 -30 -26 -40 -10 -5 8 -11 6 -20 -5 -10 -13 -9
-15 6 -16 15 0 14 -3 -6 -11 -14 -6 -31 -10 -37 -9 -7 1 -13 -5 -13 -12 0 -8
-9 -17 -20 -20 -12 -3 -20 -14 -20 -27 0 -11 -6 -20 -13 -19 -27 3 -36 -2 -30
-18 4 -11 3 -14 -5 -9 -7 4 -15 1 -18 -8 -3 -9 -12 -16 -19 -16 -8 0 -29 -15
-47 -32 -41 -41 -82 -98 -69 -98 5 0 12 6 14 13 4 9 6 9 6 -1 1 -7 -11 -17
-25 -22 -16 -6 -24 -16 -21 -24 7 -18 -49 -61 -56 -43 -3 6 -6 2 -6 -9 -1 -24
-47 -74 -67 -74 -8 0 -14 -5 -14 -11 0 -16 -31 -38 -55 -39 -15 0 -17 -2 -7
-9 11 -6 10 -10 -5 -16 -10 -5 -26 -7 -35 -6 -9 1 -23 -7 -30 -18 -7 -12 -21
-21 -30 -21 -16 0 -23 -17 -19 -42 0 -4 -10 -10 -24 -14 -14 -3 -25 -10 -25
-15 0 -18 -88 -102 -99 -95 -6 4 -9 1 -5 -7 3 -8 -5 -23 -18 -33 -35 -29 -69
-75 -62 -86 4 -6 -1 -8 -14 -4 -13 4 -22 1 -26 -9 -7 -19 -22 -19 -29 -1 -9
23 4 56 22 56 9 0 12 3 6 8 -5 4 -17 16 -25 26 -14 18 -13 19 2 13 12 -4 15
-2 11 9 -3 7 -9 14 -15 14 -5 0 -7 9 -3 19 3 11 -1 26 -10 35 -12 12 -14 20
-5 36 12 22 3 70 -12 70 -6 0 -8 6 -5 14 3 7 1 18 -5 24 -6 6 -6 12 1 16 6 4
11 2 11 -5 0 -7 2 -10 5 -7 3 3 1 17 -5 32 -6 17 -6 25 0 21 14 -9 22 37 12
66 -6 14 -8 37 -5 52 4 18 1 27 -7 27 -9 0 -9 4 1 17 12 14 12 16 -2 11 -11
-4 -15 0 -13 15 1 12 3 27 3 32 1 6 6 3 11 -5 8 -12 10 -11 10 8 0 12 -5 22
-12 22 -6 0 -9 3 -6 6 4 3 0 17 -8 32 -7 14 -10 29 -5 32 4 3 13 20 19 39 10
27 10 36 0 43 -10 6 -10 8 0 8 9 0 11 7 7 20 -4 13 -2 20 7 20 8 0 9 3 3 8
-25 18 -57 75 -46 81 16 10 32 69 20 77 -5 3 -7 10 -4 15 4 5 2 9 -3 9 -5 0
-7 13 -4 30 2 16 8 28 12 25 5 -3 6 4 3 15 -3 11 -9 20 -14 20 -11 0 1 54 13
58 4 2 5 9 1 15 -12 19 -14 47 -3 47 6 0 5 8 -2 19 -8 14 -9 23 -1 33 7 9 8
21 0 38 -5 14 -9 33 -8 44 2 10 -3 22 -9 26 -8 5 -10 18 -6 34 4 15 11 24 15
21 5 -3 4 6 -2 20 -7 14 -16 25 -21 25 -6 0 -2 6 7 13 15 11 15 15 2 40 -21
41 -24 80 -8 98 8 9 14 25 14 35 1 35 -12 109 -21 119 -4 5 -6 25 -4 43 2 18
-1 42 -6 53 -7 13 -7 19 0 19 5 0 10 5 10 11 0 5 -5 7 -12 3 -8 -5 -9 -2 -5 9
3 10 3 17 -2 17 -15 0 -4 63 13 76 16 12 16 14 0 46 -20 37 -23 56 -12 79 5
11 2 22 -8 29 -19 17 -13 35 12 35 10 0 19 6 18 13 -1 6 -2 25 -2 41 -1 16 -9
31 -16 34 -11 4 -13 1 -9 -11 3 -9 2 -14 -2 -9 -13 11 -16 77 -5 97 5 10 5 21
0 26 -11 11 -2 54 11 54 5 0 9 9 9 21 0 12 -4 17 -11 13 -7 -4 -9 0 -6 12 3
11 8 28 11 40 4 12 2 32 -2 45 -6 14 -5 32 0 45 7 14 5 32 -6 57 -8 20 -11 37
-7 37 14 0 21 42 10 62 -7 14 -7 18 3 16 20 -4 23 51 3 58 -14 6 -14 9 -1 29
12 18 13 25 3 28 -8 4 -6 6 3 6 10 1 15 9 14 24 -3 41 -16 68 -30 63 -29 -11
-29 94 0 135 14 20 10 73 -5 63 -5 -3 -6 2 -3 10 3 9 10 16 14 16 4 0 7 18 7
39 -1 22 -5 37 -9 34 -5 -2 -8 2 -8 9 0 7 -9 19 -20 26 -24 14 -26 35 -5 52 8
6 15 26 15 43 1 58 4 77 12 77 4 0 8 5 8 10 0 6 -7 10 -15 10 -9 0 -15 9 -14
23 0 20 1 20 8 3 5 -13 10 -16 14 -9 4 6 0 19 -9 27 -9 10 -11 16 -4 16 8 0 9
10 5 30 -4 20 -3 30 5 30 7 0 9 7 6 16 -4 10 1 26 11 37 17 19 17 20 -2 9 -18
-9 -21 -7 -23 13 -1 14 6 30 18 38 11 8 17 17 14 20 -9 9 -13 87 -4 87 4 0 6
24 6 53 -1 36 -5 51 -14 49 -20 -4 -13 21 12 42 16 13 21 26 18 47 -2 16 -8
31 -12 34 -10 6 10 66 25 78 6 4 5 10 -4 16 -13 9 -12 25 4 91 5 18 0 32 -16
49 -22 23 -22 25 -6 53 17 29 15 54 -4 43 -5 -4 -9 -1 -9 4 0 6 8 11 18 11 13
0 14 2 4 9 -7 4 -14 25 -15 47 -1 21 -6 42 -11 45 -5 4 -5 13 0 20 9 14 10 19
13 40 0 5 6 7 13 3 6 -4 2 8 -9 27 -14 23 -20 46 -18 71 3 25 -1 38 -11 42
-20 8 -18 29 7 60 l21 26 -33 35 c-18 19 -34 42 -35 51 -2 10 -12 27 -24 38
l-21 21 10 -27 c6 -15 7 -29 3 -32 -10 -6 -43 20 -35 27 3 4 -3 7 -15 7 -12 0
-26 9 -32 21 -8 13 -15 17 -23 11 -7 -5 -19 -12 -28 -15 -13 -4 -16 -1 -12 16
4 18 3 19 -6 7 -7 -10 -11 -11 -11 -2 0 18 -20 15 -37 -5 -8 -10 -11 -12 -7
-4 10 21 -18 32 -33 13 -9 -12 -15 -14 -20 -5 -5 6 -21 15 -36 18 -21 6 -27 4
-27 -10 0 -9 -4 -14 -9 -11 -5 3 -12 -1 -15 -10 -3 -8 -10 -12 -16 -9 -6 4 -8
10 -5 15 3 4 -2 13 -10 20 -12 10 -21 7 -51 -19 -29 -26 -39 -30 -50 -20 -11
9 -18 9 -26 1 -15 -15 -42 -16 -33 -2 3 6 1 10 -4 10 -6 0 -11 -4 -11 -8 0 -5
-11 -14 -25 -20 -19 -9 -24 -9 -22 1 1 8 -12 11 -46 10 -26 -2 -47 1 -47 6 0
5 -7 12 -16 15 -8 3 -12 2 -9 -4 3 -6 1 -10 -4 -10 -6 0 -11 -6 -11 -14 0 -19
-25 -27 -40 -13 -10 9 -14 9 -17 0 -6 -17 -40 -16 -46 1 -8 19 3 28 19 15 8
-7 14 -6 20 2 4 8 3 9 -4 5 -7 -4 -12 -1 -12 10 0 13 -3 14 -15 4 -8 -7 -16
-9 -16 -4 -1 5 -4 -6 -8 -25 -6 -33 -7 -34 -23 -18 -22 22 -28 21 -28 -3 0
-13 -5 -18 -15 -14 -11 5 -12 11 -5 24 13 25 13 50 -1 50 -6 0 -8 -8 -4 -19 8
-25 -23 -44 -48 -30 -13 8 -17 6 -17 -5 0 -9 -7 -12 -20 -9 -11 3 -20 12 -20
20 0 8 -8 13 -17 11 -10 -1 -24 1 -31 6 -7 4 -15 6 -18 3 -8 -8 8 -37 21 -37
8 0 17 -5 21 -12 4 -6 3 -8 -3 -5 -6 4 -16 0 -23 -8 -7 -8 -17 -15 -23 -15 -6
0 -2 7 9 16 18 15 18 15 -10 9 -24 -5 -27 -4 -19 7 19 23 20 78 2 78 -6 0 -8
-7 -5 -15 3 -9 -1 -18 -9 -21 -7 -3 -11 -12 -8 -20 3 -7 -2 -17 -11 -20 -9 -3
-13 -10 -10 -15 7 -12 -7 -11 -26 1 -13 8 -13 11 -1 22 10 10 12 10 7 1 -9
-15 3 -17 24 -3 8 5 10 10 4 10 -6 0 -11 14 -10 32 0 17 -5 33 -12 36 -9 3
-11 -4 -6 -24 5 -19 4 -25 -5 -20 -7 4 -11 0 -11 -11 -1 -17 -1 -17 -14 0 -7
9 -21 17 -30 17 -9 0 -16 5 -16 11 0 6 -7 3 -15 -5 -13 -13 -14 -20 -4 -38 7
-13 17 -26 23 -30 8 -6 8 -8 0 -8 -6 0 -24 10 -39 22 l-28 22 7 -34 6 -34 -20
22 c-20 21 -28 48 -11 38 4 -3 17 4 27 15 15 17 16 19 1 13 -12 -4 -20 2 -28
20 -13 28 -32 30 -37 4 -2 -10 6 -19 18 -23 20 -6 20 -8 6 -24 -11 -13 -13
-20 -5 -28 7 -7 8 -17 3 -25 -5 -7 -9 -17 -9 -23 0 -5 -8 -9 -18 -7 -9 2 -17
-1 -17 -6 0 -10 -76 -9 -87 2 -4 4 -1 7 7 6 28 -4 40 0 40 14 0 18 -35 27 -49
13 -7 -7 -17 -5 -31 8 -24 22 -27 4 -4 -30 11 -17 12 -25 5 -25 -7 0 -17 13
-24 28 -7 18 -18 27 -27 25 -10 -3 -8 1 4 11 11 9 14 16 7 16 -6 0 -11 7 -9
16 2 10 -3 19 -11 22 -10 3 -12 0 -8 -12 4 -9 4 -23 1 -31 -7 -17 -40 -20 -49
-5 -12 19 -25 -1 -19 -28 l6 -27 -20 24 c-11 13 -32 25 -47 27 -24 2 -26 0
-21 -21 5 -21 3 -23 -29 -23 -19 0 -35 4 -35 10 0 5 -5 6 -10 3 -6 -4 -8 -11
-5 -16 3 -5 0 -6 -8 -3 -8 3 -18 0 -22 -6 -11 -18 -37 9 -29 32 5 17 4 18 -15
6 -13 -8 -17 -16 -11 -22 22 -22 8 -26 -18 -6 l-27 22 -3 -21 c-2 -12 -8 -21
-13 -21 -6 0 -7 5 -4 10 4 7 -2 9 -19 4 -16 -4 -26 -2 -26 5 0 6 -4 11 -9 11
-5 0 -7 -9 -4 -20 6 -22 -10 -45 -41 -62 -15 -8 -13 -3 7 16 24 22 27 29 17
41 -18 21 -33 18 -27 -5 7 -26 -7 -34 -27 -14 -9 8 -16 12 -16 8 0 -4 -10 1
-22 12 -15 13 -18 13 -10 3 14 -18 3 -61 -19 -75 -9 -5 -10 -2 -6 11 6 14 3
16 -14 12 -27 -7 -49 1 -49 18 0 8 -5 17 -11 21 -8 5 -10 -1 -7 -20 6 -30 1
-32 -29 -11 -31 22 -37 3 -13 -39 20 -36 13 -49 -10 -21 -7 8 -17 12 -22 9 -5
-3 -16 2 -23 12 -19 25 -18 32 1 30 9 0 19 4 21 10 3 8 -7 9 -37 1 -28 -8 -39
-16 -35 -25 3 -10 0 -12 -10 -9 -8 4 -17 2 -20 -3 -3 -5 -11 -7 -18 -4 -19 7
-53 -27 -53 -53 0 -12 3 -20 7 -18 3 3 15 -5 25 -16 18 -20 18 -20 -21 -17
-25 2 -39 -1 -38 -8 1 -6 -5 -11 -13 -11 -8 0 -14 6 -14 13 0 7 -6 15 -12 17
-7 3 2 6 20 6 21 1 31 5 26 12 -3 6 -15 9 -25 6 -11 -3 -19 0 -19 5 0 7 -5 6
-14 -1 -7 -6 -21 -9 -30 -5 -9 3 -16 1 -16 -4 0 -6 9 -14 20 -17 21 -7 29 -55
10 -55 -5 0 -10 5 -10 10 0 6 -6 10 -14 10 -9 0 -13 -7 -11 -20 4 -21 -9 -27
-20 -10 -3 6 -21 9 -38 9 -18 -1 -24 -3 -14 -6 27 -7 20 -20 -10 -18 -41 3
-43 4 -43 20 0 8 -4 15 -10 15 -5 0 -10 -7 -10 -15 0 -8 -7 -15 -15 -15 -9 0
-26 -7 -39 -15 -13 -9 -28 -15 -32 -14 -20 3 -53 -14 -47 -24 4 -7 0 -8 -13
-2 -10 4 -28 7 -39 6 -11 -1 -27 -3 -35 -3 -8 -1 -17 -4 -20 -8 -3 -4 -18 -13
-35 -21 -24 -11 -31 -21 -33 -52 -2 -20 -7 -35 -13 -32 -5 4 -9 1 -9 -4 0 -6
4 -11 9 -11 5 0 12 -7 15 -16 4 -10 2 -13 -7 -8 -6 4 -4 -2 6 -13 9 -11 17
-24 17 -30 0 -5 12 -16 28 -24 15 -7 43 -31 62 -51 32 -35 38 -38 80 -34 81 8
181 -52 145 -88 -13 -12 -13 -15 1 -20 8 -3 17 1 20 9 8 19 24 19 24 0 0 -18
16 -20 23 -2 3 8 10 6 21 -8 11 -14 18 -17 23 -9 6 8 14 4 27 -14 12 -15 14
-22 5 -17 -11 6 -11 5 -2 -5 6 -7 32 -15 57 -17 26 -3 49 -9 51 -13 3 -5 -4
-6 -15 -3 -13 4 -20 0 -20 -10 0 -8 11 -18 25 -21 14 -4 25 -13 25 -21 0 -8 7
-15 15 -15 8 0 23 -4 33 -9 9 -5 35 -14 56 -21 22 -7 49 -21 60 -31 19 -19 19
-19 0 -19 -16 0 -17 -2 -4 -11 12 -9 11 -10 -7 -6 -12 3 -24 0 -26 -7 -3 -6
-9 -2 -13 9 -5 11 -15 21 -22 23 -42 8 -60 11 -90 11 -27 1 -32 4 -28 19 3 9
1 24 -4 32 -6 9 -5 19 3 29 10 11 9 13 -3 9 -8 -2 -15 -16 -16 -29 -1 -39 -4
-49 -11 -48 -40 6 -38 0 16 -46 12 -11 22 -15 21 -10 -6 29 3 31 28 7 15 -15
26 -30 24 -34 -3 -7 58 0 66 8 2 1 25 -10 51 -25 28 -17 70 -31 104 -35 31 -4
57 -11 57 -16 0 -9 19 -8 35 2 14 8 64 7 70 -2 3 -5 15 -6 28 -4 12 2 16 2 10
-2 -17 -8 -16 -24 1 -24 8 0 16 7 20 15 3 8 12 15 20 15 10 0 13 -6 9 -17 -5
-12 -2 -15 10 -10 9 4 24 10 32 13 8 3 15 1 15 -5 0 -8 5 -9 19 -1 24 12 42
13 22 1 -11 -7 -10 -13 7 -31 19 -20 23 -21 39 -9 9 8 14 9 10 3 -4 -7 0 -15
9 -18 11 -4 18 1 21 14 4 16 8 18 19 9 8 -6 14 -8 14 -4 0 4 7 2 15 -5 14 -11
110 -20 252 -24 34 0 68 -7 74 -13 7 -7 22 -13 33 -13 15 0 17 -3 9 -11 -7 -7
-9 -33 -6 -70 4 -35 2 -59 -4 -59 -17 0 -11 -30 6 -31 11 0 12 -2 3 -6 -10 -4
-10 -8 -1 -20 19 -22 17 -62 -3 -69 -18 -5 -26 -34 -9 -34 5 0 11 -9 14 -20 3
-11 2 -18 -1 -16 -4 2 -6 -17 -4 -42 2 -26 3 -54 3 -62 -6 -80 1 -203 14 -233
4 -10 3 -29 -3 -42 -7 -15 -8 -26 -2 -30 6 -4 6 -14 -2 -28 -16 -30 -17 -51
-3 -111 8 -34 12 -135 10 -296 -1 -135 2 -270 6 -300 4 -32 3 -60 -3 -67 -5
-7 -6 -18 -2 -25 4 -7 9 -30 10 -53 1 -22 5 -60 9 -85 14 -84 24 -439 14 -446
-5 -3 -5 -15 -1 -27 4 -12 7 -35 6 -52 -1 -16 3 -38 8 -47 5 -11 5 -18 -1 -18
-5 0 -7 -9 -4 -20 3 -13 0 -20 -8 -20 -9 0 -10 -3 -3 -8 17 -12 23 -39 11 -51
-8 -8 -8 -11 2 -11 11 0 11 -3 1 -15 -7 -9 -9 -22 -5 -32 5 -10 8 -36 7 -58
-1 -56 -1 -57 -12 -50 -5 3 -10 1 -10 -4 0 -10 14 -15 33 -12 5 1 6 -3 2 -8
-3 -6 0 -19 7 -31 11 -17 10 -25 -5 -52 -14 -24 -15 -28 -2 -18 17 14 21 0 4
-17 -8 -8 -7 -20 5 -45 15 -28 15 -34 3 -42 -12 -8 -12 -13 0 -37 8 -16 11
-33 8 -39 -4 -6 -1 -17 5 -25 8 -9 10 -28 6 -50 -4 -19 -4 -41 0 -47 7 -11 9
-58 3 -75 -5 -17 -9 -71 -9 -123 0 -38 4 -58 15 -66 15 -11 22 -94 7 -94 -11
0 -7 -81 5 -110 11 -28 6 -90 -8 -90 -5 0 -9 -13 -9 -30 0 -16 5 -30 11 -30 6
0 8 -7 5 -16 -3 -8 -1 -25 6 -37 19 -34 20 -57 3 -51 -11 5 -15 -1 -15 -21 0
-16 4 -24 11 -19 8 5 8 1 0 -14 -13 -24 -15 -55 -3 -48 12 7 12 -26 0 -40 -5
-8 -2 -14 9 -19 17 -6 16 -8 -5 -25 -17 -15 -20 -23 -13 -42 4 -12 11 -44 15
-70 4 -26 13 -49 21 -52 8 -3 15 -13 15 -21 0 -9 -5 -13 -10 -10 -6 4 -8 10
-6 14 3 4 0 8 -7 8 -13 0 -17 -193 -4 -214 4 -6 4 -19 0 -29 -4 -12 -3 -15 6
-10 8 5 7 -4 -3 -29 -11 -26 -13 -42 -6 -55 5 -10 10 -29 10 -42 0 -13 0 -34
1 -47 0 -13 4 -32 10 -42 6 -12 5 -20 -2 -24 -14 -9 -1 -67 19 -83 16 -12 15
-15 -8 -34 -20 -16 -21 -19 -6 -16 14 2 19 -3 21 -19 1 -14 -4 -23 -13 -23
-10 0 -12 -10 -8 -41 3 -22 8 -44 11 -49 3 -5 -3 -14 -12 -19 -17 -11 -17 -11
0 -22 10 -6 14 -15 10 -22 -13 -19 -9 -97 4 -97 13 0 12 -25 -2 -37 -4 -4 -5
-2 -1 5 4 6 3 12 -2 12 -15 0 -22 -42 -11 -57 13 -15 18 -84 6 -76 -12 7 -4
-50 8 -59 6 -5 6 -8 -2 -8 -6 0 -9 -9 -6 -22 5 -19 3 -21 -8 -10 -21 19 -34
14 -37 -15 -1 -15 -9 -37 -17 -50 -9 -13 -12 -23 -9 -23 4 0 -5 -10 -19 -23
-15 -12 -27 -28 -27 -35 0 -7 -7 -12 -15 -12 -9 0 -15 -9 -15 -25 0 -14 -7
-28 -15 -31 -8 -4 -15 -12 -15 -20 0 -8 -4 -14 -10 -14 -5 0 -10 -6 -10 -14 0
-7 -7 -19 -15 -26 -11 -9 -15 -10 -15 -1 0 8 -12 3 -31 -9 -17 -13 -28 -28
-25 -36 3 -8 0 -14 -7 -14 -14 0 -47 -35 -47 -50 0 -6 -7 -10 -15 -10 -8 0
-21 -13 -30 -30 -9 -16 -23 -30 -31 -30 -9 0 -14 -6 -11 -13 7 -18 -2 -30 -35
-44 -17 -8 -28 -22 -33 -42 -4 -17 -11 -31 -17 -31 -6 0 -8 -9 -5 -20 4 -16 0
-20 -18 -20 -18 0 -22 -4 -18 -19 3 -10 0 -22 -6 -25 -7 -4 -8 -1 -5 8 3 9 4
16 1 16 -7 0 -43 -62 -51 -88 -9 -26 -60 -82 -75 -82 -6 0 -11 -8 -11 -18 0
-10 -7 -28 -16 -40 -8 -12 -12 -28 -8 -35 4 -6 4 -9 -1 -5 -10 10 -37 -11 -29
-23 3 -5 -1 -9 -9 -9 -8 0 -14 -8 -13 -17 1 -13 -5 -17 -22 -16 -14 2 -22 -3
-22 -12 0 -8 -4 -15 -10 -15 -5 0 -10 -9 -10 -20 0 -11 -6 -20 -13 -20 -8 0
-22 -16 -33 -35 -10 -19 -22 -35 -26 -35 -4 0 -12 -16 -19 -35 -7 -19 -17 -35
-22 -35 -4 0 -6 -4 -2 -9 3 -6 0 -13 -8 -18 -7 -4 -21 -21 -30 -36 -13 -19
-24 -27 -35 -23 -15 5 -15 5 -1 -6 14 -12 14 -15 -3 -32 -10 -11 -18 -27 -18
-36 0 -8 -10 -22 -21 -30 -12 -8 -28 -30 -35 -47 -8 -18 -19 -33 -24 -33 -6 0
-10 -9 -10 -20 0 -12 -14 -34 -30 -50 -17 -17 -25 -30 -18 -30 7 -1 3 -9 -10
-19 -12 -11 -22 -26 -22 -34 0 -9 -9 -19 -20 -22 -11 -3 -23 -18 -27 -33 -3
-15 -9 -29 -12 -32 -13 -10 -45 -65 -43 -73 1 -4 -11 -13 -28 -18 -30 -11 -41
-29 -17 -29 6 -1 1 -10 -13 -22 -14 -11 -24 -26 -22 -34 1 -7 -6 -22 -18 -34
-11 -11 -20 -27 -20 -35 0 -9 -6 -12 -15 -9 -11 5 -13 2 -8 -12 4 -11 3 -15
-5 -10 -10 6 -36 -27 -38 -49 -1 -18 -39 -90 -54 -103 -8 -8 -9 -11 -2 -7 22
11 12 -13 -14 -34 -15 -12 -22 -21 -15 -21 6 0 11 -5 11 -10 0 -6 -8 -10 -17
-8 -11 2 -17 -2 -15 -10 1 -8 -5 -16 -15 -19 -10 -2 -28 -27 -41 -55 -24 -51
-21 -78 4 -44 8 11 14 15 14 8 0 -6 -10 -20 -22 -32 -12 -11 -19 -23 -15 -26
7 -7 -27 -60 -54 -85 -10 -8 -21 -27 -24 -42 -4 -15 -11 -25 -16 -22 -4 3 -13
-4 -19 -15 -9 -16 -8 -20 5 -20 22 0 10 -40 -17 -59 -11 -7 -17 -19 -14 -26 2
-7 -8 -26 -23 -41 -40 -42 -72 -109 -59 -122 8 -8 8 -15 0 -25 -7 -8 -9 -16
-6 -19 3 -3 -3 -5 -13 -5 -17 2 -19 -2 -22 -56 -1 -10 -5 -15 -11 -12 -9 6
-14 -8 -11 -28 0 -4 -4 -7 -10 -7 -8 0 -8 -4 0 -14 9 -10 8 -16 -4 -26 -8 -7
-12 -17 -9 -22 3 -5 -5 -21 -17 -35 -22 -24 -22 -26 -4 -20 19 7 19 6 2 -7
-13 -10 -17 -21 -12 -37 4 -13 2 -24 -5 -29 -7 -4 -14 -22 -16 -40 -2 -18 -9
-39 -15 -46 -6 -7 -8 -18 -5 -23 4 -5 1 -13 -5 -17 -8 -5 -9 -3 -4 6 6 9 4 11
-5 5 -8 -5 -10 -20 -7 -40 3 -18 2 -36 -1 -40 -7 -6 -8 -10 -11 -36 0 -5 -5
-8 -10 -5 -8 5 -26 -85 -22 -111 1 -7 -2 -13 -7 -13 -5 0 -9 -6 -9 -12 -4 -57
-13 -102 -22 -107 -5 -4 -12 -18 -14 -31 -2 -14 -8 -36 -14 -50 -6 -14 -13
-38 -17 -54 -6 -23 -4 -27 8 -23 20 8 21 -7 2 -23 -8 -6 -12 -19 -9 -27 5 -12
2 -15 -9 -11 -11 5 -14 1 -10 -18 2 -13 0 -24 -6 -24 -12 0 -11 -18 2 -39 6
-10 5 -12 -2 -7 -15 9 -34 -37 -26 -59 4 -8 1 -22 -6 -30 -7 -8 -9 -22 -6 -32
4 -9 1 -20 -6 -24 -9 -6 -8 -13 6 -28 12 -13 14 -21 7 -21 -6 0 -11 -6 -10
-12 1 -7 -3 -26 -10 -42 -6 -16 -13 -36 -15 -45 -2 -9 -6 -24 -11 -33 -4 -10
-5 -24 -2 -32 3 -7 1 -18 -5 -24 -14 -14 -1 -32 20 -26 14 5 14 4 2 -4 -8 -6
-17 -9 -21 -6 -4 2 -9 -5 -12 -16 -3 -11 -1 -23 4 -26 11 -6 12 -54 1 -54 -4
0 -6 -46 -6 -102 1 -57 -2 -111 -7 -120 -7 -12 -4 -20 8 -28 13 -8 14 -13 6
-16 -16 -7 -17 -36 -1 -52 7 -7 9 -12 5 -12 -3 0 -2 -11 3 -25 7 -17 6 -25 -1
-25 -6 0 -9 -6 -6 -14 3 -8 3 -17 0 -20 -4 -3 -8 -45 -9 -93 -2 -49 -6 -93 -8
-100 -3 -6 2 -14 10 -17 10 -4 13 -13 9 -26 -4 -12 -2 -20 5 -20 7 0 10 -7 7
-15 -4 -8 -2 -17 3 -20 6 -4 7 -13 1 -23 -5 -9 -8 -42 -6 -72 1 -30 2 -74 3
-98 1 -29 6 -41 13 -36 8 5 8 1 0 -14 -8 -15 -7 -23 4 -32 11 -9 12 -16 2 -30
-8 -14 -9 -30 -1 -59 8 -29 8 -43 0 -51 -8 -8 -7 -11 4 -8 10 2 16 -7 18 -27
2 -16 11 -39 20 -49 10 -11 11 -16 5 -12 -16 9 -11 -74 6 -119 7 -16 11 -41
10 -55 -1 -14 1 -32 5 -41 4 -9 8 -27 10 -41 1 -13 5 -28 8 -33 3 -6 8 -22 12
-37 5 -20 13 -28 29 -28 12 0 17 -4 12 -8 -14 -10 -20 -76 -6 -68 6 4 12 1 13
-6 0 -7 2 -18 2 -24 1 -6 6 -18 13 -25 12 -15 13 -18 13 -48 0 -11 7 -26 15
-35 8 -8 15 -19 15 -25 0 -5 9 -13 21 -16 11 -4 18 -9 15 -12 -3 -4 0 -13 7
-21 10 -13 8 -14 -18 -9 -24 6 -26 5 -12 -3 25 -16 47 -63 37 -80 -6 -9 2 -23
26 -45 24 -22 32 -37 29 -53 -2 -13 0 -20 5 -17 5 3 14 -4 20 -16 8 -15 9 -19
1 -15 -6 4 -16 4 -22 1 -6 -5 1 -19 20 -37 17 -17 31 -34 31 -39 0 -5 7 -9 15
-9 18 0 20 -30 3 -30 -8 -1 -6 -6 5 -14 9 -7 17 -20 17 -29 0 -9 8 -18 18 -21
9 -4 27 -22 40 -41 12 -19 27 -35 32 -35 6 0 10 -9 10 -20 0 -10 12 -32 26
-47 14 -15 29 -32 32 -36 4 -5 22 -17 40 -28 20 -11 30 -24 26 -31 -5 -8 0 -9
15 -5 18 4 20 3 10 -9 -9 -11 -8 -14 5 -14 9 0 16 -4 16 -10 0 -5 -8 -10 -17
-10 -13 0 -10 -6 12 -20 19 -12 32 -16 36 -9 7 12 39 -27 39 -48 0 -8 12 -13
30 -13 23 0 28 -3 23 -17 -5 -13 -2 -15 11 -10 15 6 17 3 13 -13 -6 -24 12
-38 24 -19 7 11 9 10 9 -3 0 -11 11 -20 28 -24 15 -4 30 -12 34 -17 4 -7 13
-6 24 4 10 8 15 9 11 3 -3 -6 0 -20 8 -30 8 -10 15 -14 15 -7 0 6 -5 15 -10
18 -8 5 -8 11 0 20 13 16 -1 28 -24 19 -9 -3 -16 -1 -16 4 0 6 -9 14 -21 17
-11 4 -18 9 -16 12 3 2 15 -1 27 -7 18 -10 24 -8 36 7 14 17 14 17 12 -2 -2
-11 2 -20 9 -20 6 0 15 -3 19 -7 4 -5 14 -8 23 -8 14 0 14 2 1 10 -12 8 -12
10 4 16 11 4 21 2 27 -7 5 -8 21 -12 44 -11 22 2 35 -1 35 -8 0 -9 10 -11 30
-6 17 3 42 0 56 -6 20 -9 27 -9 34 1 9 16 130 23 130 8 0 -6 7 -2 16 9 15 19
16 19 10 -1 -5 -17 -4 -18 6 -4 11 12 17 13 37 3 24 -13 46 -10 37 5 -3 4 4
12 15 19 16 10 19 9 19 -3 0 -8 5 -15 11 -15 5 0 7 4 4 10 -3 6 1 7 9 4 11 -4
16 0 16 11 0 9 6 15 13 12 6 -2 11 -11 9 -21 -4 -21 10 -21 24 2 15 23 94 19
94 -5 0 -8 5 -11 10 -8 6 3 13 -2 17 -11 4 -10 2 -19 -5 -22 -25 -8 -11 -23
21 -22 50 3 59 1 51 -12 -4 -6 -3 -8 4 -4 6 3 21 2 34 -3 15 -5 31 -5 41 0 12
7 17 6 17 -1 0 -8 12 -10 38 -5 29 5 42 2 59 -15 12 -11 27 -20 33 -20 5 0 10
-9 10 -20 0 -11 7 -20 16 -20 8 0 12 -4 9 -10 -4 -6 6 -7 27 -3 38 7 49 13 25
13 -9 0 -17 7 -17 16 0 11 6 14 23 9 12 -4 26 -11 31 -16 13 -12 29 -11 21 1
-9 15 32 12 47 -4 12 -11 17 -10 34 9 11 12 18 28 16 36 -3 9 3 7 17 -5 16
-15 21 -16 21 -5 0 30 22 40 44 22 12 -10 16 -11 9 -4 -8 10 -9 20 -1 36 13
29 48 22 48 -9 1 -20 2 -20 14 -3 7 9 23 17 34 17 23 0 42 22 24 28 -12 4 -17
32 -6 32 4 0 12 -8 19 -17 10 -13 15 -14 26 -4 8 6 23 18 34 26 19 14 19 14
-4 10 -19 -4 -22 -2 -13 7 16 16 15 28 -3 28 -8 0 -15 -7 -15 -15 0 -20 -48
-31 -63 -15 -9 10 -9 14 1 17 6 3 12 14 12 25 0 14 5 18 18 14 9 -2 37 -7 62
-10 l45 -6 -34 13 c-31 12 -63 57 -41 57 6 0 10 -7 10 -17 0 -15 1 -15 19 1
16 15 20 15 31 1 7 -8 16 -13 20 -10 5 3 12 0 16 -6 4 -8 3 -9 -4 -5 -7 4 -12
3 -12 -2 0 -6 7 -13 16 -16 8 -3 12 -2 9 3 -3 5 -1 12 5 16 5 3 10 0 10 -7 0
-10 3 -9 9 2 6 8 7 18 5 22 -3 4 0 8 5 8 6 0 11 4 11 10 0 5 -3 9 -8 9 -32 -5
-51 3 -49 21 1 20 27 29 27 10 0 -15 39 -32 60 -25 11 4 20 13 20 21 0 8 4 13
10 9 5 -3 16 8 25 25 8 16 18 30 21 30 3 0 2 -4 -1 -10 -3 -6 1 -7 10 -4 9 4
14 9 11 12 -9 9 23 72 48 96 15 13 26 28 26 35 0 6 5 11 10 11 6 0 15 12 20
26 6 14 18 28 28 31 13 3 17 13 17 39 -1 21 3 34 11 34 7 0 16 10 20 23 7 21
9 27 12 53 3 16 37 54 50 54 14 0 25 34 13 38 -19 6 -12 22 9 22 11 0 20 7 20
15 0 8 4 15 8 15 5 0 10 12 10 28 2 39 7 60 15 68 4 4 7 16 7 26 0 10 7 18 18
19 10 0 12 3 5 6 -21 8 -15 26 7 20 25 -6 26 1 2 20 -16 14 -16 14 1 9 13 -4
20 0 24 14 3 11 10 20 15 20 5 0 6 9 3 20 -4 12 -2 20 6 20 17 0 -7 27 -29 33
-9 2 -5 3 11 2 29 -2 34 4 15 23 -9 9 -8 12 5 12 9 0 17 5 17 10 0 6 -6 10
-14 10 -8 0 -18 5 -22 11 -4 8 3 9 26 4 29 -6 31 -5 21 13 -6 11 -7 23 -3 26
4 4 -1 12 -11 17 -21 12 -23 33 -2 25 8 -3 15 -1 15 4 0 6 -5 10 -10 10 -11 0
-4 46 10 65 4 6 5 29 4 52 -3 34 0 43 16 48 22 7 26 35 9 67 -6 12 -7 18 -1
14 5 -3 13 1 16 10 3 8 2 12 -4 9 -6 -3 -10 -2 -10 4 0 5 5 11 12 13 6 2 12
13 13 24 6 63 18 104 32 104 11 0 13 7 8 30 -4 18 -2 30 3 30 6 0 13 13 17 30
7 30 25 42 25 16 0 -19 13 -27 29 -17 9 6 11 19 6 40 -6 27 -9 29 -26 21 -17
-10 -19 -7 -19 24 0 19 4 38 10 41 6 3 10 1 10 -4 0 -16 26 -13 40 4 10 13 9
15 -9 15 -11 0 -22 3 -22 8 -7 44 -6 62 3 62 6 0 8 9 5 20 -5 21 16 29 28 10
3 -5 13 -10 21 -10 11 0 14 6 9 23 -4 12 -12 27 -18 32 -7 7 -8 6 -3 -2 5 -9
0 -13 -14 -13 -16 0 -20 4 -16 16 3 9 6 20 6 25 0 5 11 7 24 3 32 -8 42 20 17
45 -24 24 -17 61 10 61 11 0 22 7 26 15 9 24 -7 32 -22 12 -11 -16 -13 -16
-19 -2 -3 9 -2 13 4 10 13 -8 13 7 0 39 -6 17 -6 26 0 26 6 0 9 3 9 8 -3 20 2
31 14 27 15 -5 50 41 42 55 -4 6 -15 8 -25 5 -14 -4 -19 1 -22 25 -4 28 -1 33
31 46 34 14 34 15 14 29 -34 24 -35 52 -2 65 28 12 40 30 19 30 -5 0 -10 -5
-10 -12 0 -8 -3 -9 -10 -2 -6 6 -8 18 -4 28 5 14 9 14 22 4 13 -11 15 -10 9 4
-3 10 -2 20 3 23 6 4 10 10 10 16 0 14 -28 11 -33 -3 -3 -7 -6 -1 -6 14 -1 15
-6 30 -11 33 -7 4 -3 13 9 24 12 11 19 26 16 39 -3 15 0 19 11 15 9 -3 12 -13
9 -24 -4 -13 -1 -19 9 -19 10 0 13 6 10 15 -4 8 -1 15 5 15 6 0 11 5 11 10 0
6 -8 10 -18 10 -30 0 -40 18 -31 58 4 20 6 40 3 44 -3 4 0 8 5 8 6 0 11 5 11
11 0 7 8 18 18 26 9 8 12 12 6 9 -7 -3 -14 3 -17 13 -3 15 0 19 13 16 13 -3
16 1 13 16 -4 12 -11 18 -20 15 -8 -3 -11 -1 -8 5 4 5 16 7 28 4 21 -6 21 -5
3 9 -10 8 -24 17 -30 20 -7 3 -6 8 4 15 9 6 16 7 18 1 8 -24 18 -7 14 25 -2
19 -8 33 -12 30 -5 -3 -2 8 7 25 10 21 12 35 5 43 -15 18 -9 54 12 78 14 16
15 23 6 29 -7 5 -10 15 -7 24 4 9 2 16 -4 16 -16 0 1 20 25 30 18 8 19 9 2 9
-13 1 -16 5 -10 19 4 9 7 29 6 45 -1 17 4 27 13 27 10 0 12 9 8 35 -4 24 -2
35 6 35 7 0 9 5 5 12 -12 19 -13 81 -2 96 7 8 7 16 -1 25 -8 10 -7 17 2 26 8
8 8 14 2 19 -6 4 -11 19 -12 34 0 18 5 28 19 31 11 3 17 10 13 16 -3 6 -10 9
-15 6 -5 -3 -11 -1 -15 5 -3 5 2 10 12 10 15 1 13 5 -9 25 -16 13 -28 26 -28
29 0 3 12 1 28 -4 l27 -10 -22 19 c-27 22 -29 31 -8 31 9 0 12 6 8 17 -5 13
-2 15 15 11 30 -8 28 10 -3 24 -29 13 -33 26 -7 24 11 -1 16 5 14 18 -2 12 1
16 10 10 7 -4 4 3 -7 15 -12 14 -15 25 -9 29 7 5 9 76 7 197 -1 105 -3 201 -3
215 0 13 4 28 9 33 6 6 5 21 -1 37 -6 18 -6 41 0 63 5 19 6 40 2 48 -5 7 -6
29 -3 48 3 20 5 48 5 64 -1 15 4 27 11 27 7 0 4 5 -5 11 -23 13 -23 39 0 39
15 1 15 2 1 10 -11 6 -15 21 -13 47 2 21 4 38 5 38 6 0 5 73 -2 86 -4 8 -4 21
0 28 5 7 5 28 1 47 -4 19 -5 36 -1 39 5 2 8 25 9 50 0 32 -3 43 -11 38 -7 -4
-6 1 2 11 9 10 11 20 5 24 -12 9 -12 142 1 142 6 0 4 4 -4 9 -12 7 -12 13 -3
24 7 7 9 17 5 21 -10 9 -14 116 -5 116 11 0 8 94 -3 102 -6 5 -5 8 3 8 8 0 10
5 5 12 -4 7 -8 44 -9 83 -4 121 -10 190 -18 203 -4 7 -4 12 1 11 20 -3 25 2
13 16 -7 9 -9 22 -5 32 5 10 7 26 6 36 -1 10 2 32 8 50 18 56 21 130 5 148
-13 15 -13 19 0 32 8 8 13 17 10 20 -10 10 -22 77 -13 71 5 -3 9 -1 9 5 0 5
-4 13 -10 16 -5 3 -10 19 -10 35 0 16 -5 32 -10 35 -6 4 -2 17 11 33 l20 27
-23 19 c-13 11 -16 17 -7 14 12 -5 15 -1 11 17 -2 12 1 26 7 29 7 5 6 14 -4
30 -12 18 -13 30 -5 50 5 15 8 31 5 36 -3 5 1 14 8 22 15 16 14 58 -3 68 -9 5
-9 9 -1 14 6 4 9 12 5 17 -3 5 0 8 8 7 8 -2 12 5 11 17 -1 10 8 32 18 47 11
15 17 28 14 28 -4 0 1 7 9 16 9 8 14 20 10 25 -3 5 0 8 8 7 8 -2 13 6 13 20 0
26 21 43 43 35 11 -5 13 -1 8 14 -5 15 1 22 29 33 19 8 35 17 35 21 0 15 49
61 59 55 5 -4 12 -2 16 4 4 6 11 7 17 4 7 -5 7 -1 0 12 -8 15 -7 24 6 38 9 11
11 16 5 12 -7 -4 -13 -2 -13 3 0 6 8 11 18 11 10 0 24 9 32 20 8 11 20 20 27
20 7 0 13 7 13 15 0 8 5 15 10 15 6 0 10 7 10 16 0 13 7 15 31 10 27 -5 30 -4
19 9 -10 12 -9 15 5 15 14 0 15 3 5 15 -9 11 -10 18 -1 28 6 8 8 17 4 20 -10
11 11 8 40 -5 15 -7 27 -17 27 -21 0 -5 5 -5 10 -2 8 5 7 11 0 20 -17 21 -8
60 13 59 20 -2 23 12 5 19 -8 3 -5 6 6 6 13 1 16 6 12 19 -5 14 -4 14 9 -2 8
-11 15 -14 15 -8 0 7 6 12 14 12 8 0 13 9 12 23 -1 12 9 32 24 44 29 27 40 29
40 8 0 -9 6 -12 16 -8 11 4 12 9 5 16 -18 18 -13 29 9 22 12 -4 20 -2 20 5 0
6 -4 9 -9 6 -5 -3 -16 5 -25 19 -16 24 -16 25 26 52 24 15 52 32 63 38 11 6
20 20 19 32 0 15 5 19 20 16 17 -4 18 -3 6 6 -13 9 -13 11 2 11 21 0 30 14 22
35 -4 10 -14 15 -25 12 -21 -6 -26 17 -9 43 8 12 10 12 16 -3 5 -13 15 -16 43
-13 20 3 41 5 47 5 7 1 9 12 6 27 -3 16 1 29 8 34 11 7 10 13 -3 33 -9 13 -13
34 -10 45 6 26 31 37 29 14 0 -9 4 -16 10 -15 6 1 11 -5 11 -13 0 -7 -4 -14
-9 -14 -21 0 -5 -26 18 -28 22 -2 24 1 15 12 -10 12 -8 13 10 9 17 -5 21 -3
17 9 -8 21 28 50 53 43 13 -4 19 -2 17 7 -2 7 4 12 14 10 13 -2 16 5 14 33 -2
25 1 35 11 35 7 0 16 6 19 14 3 8 14 12 27 9 18 -4 19 -3 7 7 -12 9 -10 11 12
7 18 -3 25 0 21 9 -2 6 0 15 6 19 6 3 11 17 11 31 0 21 3 23 20 14 15 -8 21
-6 30 10 12 22 32 28 24 6 -3 -7 1 -16 10 -19 24 -9 27 21 3 38 -15 10 -22 26
-23 52 -1 21 1 30 3 21 3 -10 9 -18 14 -18 5 0 8 -3 8 -7 -3 -20 2 -23 17 -8
10 9 24 13 33 10 26 -11 54 -15 47 -7 -4 4 -13 7 -19 7 -16 1 -10 45 8 65 8 9
15 22 15 29 0 7 5 9 10 6 6 -4 7 -11 4 -17 -4 -6 1 -8 12 -6 11 2 23 21 33 56
13 44 19 52 37 50 22 -3 74 38 74 59 0 8 7 10 18 6 15 -6 15 -5 3 10 -7 9 -10
17 -5 17 14 0 30 -14 38 -30 3 -8 4 -1 2 15 -5 32 13 65 35 65 19 0 79 58 79
76 0 7 7 14 15 14 9 0 12 6 9 15 -4 8 -1 15 5 15 6 0 11 -4 11 -10 0 -5 5 -10
10 -10 6 0 10 7 10 15 0 8 5 15 11 15 7 0 9 10 5 24 -5 20 -2 24 13 23 12 -1
17 -6 13 -17 -3 -10 3 -7 20 8 13 12 28 19 31 15 4 -3 8 0 9 8 0 8 2 21 2 29
1 8 8 14 16 12 11 -3 11 0 0 12 -11 15 -7 20 13 17 5 -1 17 9 27 21 13 17 15
25 7 31 -8 6 -5 7 6 3 12 -4 29 4 50 24 18 16 37 30 44 30 20 0 26 20 11 37
-9 12 -9 15 0 9 8 -5 12 -1 12 11 0 15 2 16 10 3 5 -8 10 -11 10 -6 0 5 7 3
16 -4 8 -8 14 -9 13 -4 -3 20 1 35 10 30 5 -3 12 1 15 10 4 9 13 14 21 10 9
-3 15 0 15 9 0 8 9 15 20 15 13 0 18 5 14 15 -5 12 -2 14 12 8 17 -6 18 -5 5
11 -13 16 -12 17 13 10 20 -5 26 -3 24 7 -2 8 5 13 15 12 12 -1 17 4 13 14 -4
9 -1 13 6 11 13 -5 92 69 100 92 4 13 7 13 23 0 17 -14 18 -13 12 3 -4 11 -2
17 7 17 8 0 19 14 25 31 6 17 14 28 19 25 13 -8 62 17 62 31 0 7 7 10 15 7 8
-4 15 -1 15 5 0 6 7 11 16 11 10 0 14 6 10 15 -3 9 0 15 9 15 8 0 26 11 40 26
14 14 30 22 36 19 6 -4 13 3 16 15 3 13 11 19 19 16 8 -3 14 1 14 9 0 8 20 24
45 35 25 12 44 24 41 28 -5 8 20 33 26 26 3 -2 13 5 23 16 10 11 23 20 28 20
5 0 20 12 33 28 13 15 24 23 24 18 0 -6 12 2 28 16 15 14 42 31 60 39 17 8 32
20 32 27 0 7 4 11 9 8 4 -3 18 5 31 19 12 13 35 27 51 30 16 4 29 11 29 17 0
6 7 8 15 4 8 -3 21 1 29 9 7 8 16 12 18 9 8 -7 98 34 98 46 0 5 11 10 24 10
25 0 51 22 39 33 -3 4 7 7 24 7 16 0 33 3 37 8 4 4 11 7 16 7 15 0 50 47 44
59 -3 6 1 3 9 -6 13 -16 15 -16 37 7 13 13 27 22 31 19 4 -2 15 9 24 26 12 23
21 29 35 25 10 -3 22 0 27 7 4 7 17 13 28 13 11 0 19 6 17 13 -1 6 4 12 12 12
7 0 19 7 26 15 11 13 10 15 -6 9 -15 -5 -16 -4 -4 5 9 6 18 7 24 1 11 -11 46
5 46 21 0 6 -4 7 -10 4 -5 -3 -10 -2 -10 3 0 19 14 21 32 5 19 -17 19 -16 13
10 -6 21 -4 27 10 27 11 0 15 5 12 14 -3 8 1 17 9 20 8 3 14 1 14 -4 0 -6 7
-10 15 -10 8 0 15 -8 16 -17 0 -14 3 -13 11 5 6 13 17 21 25 18 7 -3 12 -2 12
2 -4 25 4 40 23 45 13 4 26 1 30 -6 4 -7 6 1 5 18 -2 27 1 30 26 28 16 -1 25
2 21 8 -3 6 3 13 15 16 19 5 25 15 22 36 -1 7 21 11 53 7 10 -1 16 2 13 7 -4
6 9 16 28 23 19 8 35 17 35 22 0 10 55 38 75 38 9 0 13 -4 10 -10 -3 -5 -2
-10 4 -10 6 0 13 11 17 25 8 31 36 49 52 33 9 -9 12 -7 12 9 0 24 19 34 48 26
15 -3 21 2 26 22 4 14 11 23 16 20 5 -3 14 3 20 14 8 15 19 19 45 17 18 -1 32
1 29 5 -5 8 14 23 31 25 6 0 16 2 23 2 6 1 12 9 12 18 0 11 5 14 16 10 16 -6
60 18 58 32 -1 4 1 13 3 20 4 9 9 8 20 -5 10 -13 16 -15 19 -5 3 6 11 12 19
12 7 0 15 14 19 30 3 17 11 30 17 30 6 0 8 -7 5 -17 -4 -9 -1 -20 6 -25 18
-11 28 -10 28 3 0 6 10 19 23 29 17 14 25 16 36 7 12 -9 13 -9 7 1 -5 8 0 12
14 12 14 0 20 5 17 13 -4 10 4 14 24 14 36 0 76 19 108 53 14 14 33 24 43 22
10 -2 21 4 24 12 3 9 15 16 26 16 11 0 27 7 35 16 9 8 25 13 36 10 13 -3 21 1
24 15 3 10 9 17 13 14 5 -3 11 -1 15 4 3 6 12 8 20 4 8 -3 15 0 15 6 0 6 7 11
16 11 8 0 13 4 9 9 -3 5 -1 12 5 16 6 3 13 -1 16 -10 5 -13 10 -11 30 10 13
14 30 25 39 25 9 0 14 4 10 9 -7 13 28 23 50 15 12 -5 16 -4 12 3 -4 6 -1 16
7 22 10 8 15 9 18 1 5 -16 118 38 118 56 0 8 3 13 8 11 4 -3 12 1 19 8 10 11
10 15 0 18 -9 4 -9 6 1 6 7 1 15 -5 18 -13 5 -12 11 -13 30 -4 13 6 21 15 18
19 -3 5 -2 14 2 20 4 8 9 7 14 -2 7 -10 14 -9 33 4 14 9 38 19 53 21 15 3 30
9 33 14 3 6 15 12 26 14 11 2 19 10 17 18 -3 11 0 11 12 1 19 -16 36 -6 36 19
0 10 4 22 10 25 6 3 7 -1 4 -9 -10 -26 39 -19 63 8 12 13 18 28 15 32 -4 5 0
3 10 -4 11 -9 18 -10 23 -2 3 5 16 10 29 10 33 0 58 22 59 53 2 32 32 37 42 7
7 -23 25 -27 25 -5 0 8 7 15 15 15 8 0 25 5 39 12 19 8 23 15 16 23 -8 9 2 12
40 10 46 -2 50 0 50 21 0 31 17 39 40 19 19 -17 20 -17 26 0 4 10 1 21 -7 27
-12 8 -11 9 1 5 8 -2 24 3 35 12 18 15 19 15 6 -1 -22 -29 11 -23 39 7 14 15
30 23 41 20 10 -3 19 1 23 10 3 8 13 15 23 15 15 0 15 1 -2 13 -14 11 -15 16
-5 22 8 5 16 2 22 -9 10 -17 48 -22 48 -6 0 6 6 10 13 10 7 0 21 16 31 35 19
35 20 35 40 17 12 -10 29 -17 39 -15 19 5 24 43 5 43 -7 0 -4 6 6 12 15 8 21
7 28 -6 18 -32 44 -17 38 23 -1 10 6 12 27 8 22 -4 34 2 62 30 24 25 40 34 56
30 14 -2 22 0 19 7 -2 6 9 20 23 30 18 14 28 16 31 8 6 -18 50 -14 61 6 7 11
10 13 11 3 0 -11 3 -11 15 -1 8 7 12 16 9 21 -3 5 2 6 11 2 13 -5 14 -7 3 -14
-7 -5 -10 -9 -5 -9 4 0 16 6 27 13 17 10 22 9 29 -2 11 -18 31 -5 31 20 0 15
5 18 24 13 16 -4 25 -1 29 10 4 9 24 19 48 22 23 4 51 16 63 28 25 25 57 30
48 7 -3 -9 10 1 30 22 33 34 57 50 43 27 -3 -5 -3 -10 2 -10 14 1 43 27 43 40
0 7 7 10 15 7 8 -4 17 -2 21 4 3 6 11 3 18 -7 12 -16 13 -15 19 6 5 18 11 22
31 18 14 -3 26 -1 26 4 0 6 7 8 15 4 10 -4 15 1 15 15 0 16 4 19 20 14 15 -5
20 -2 20 11 0 16 1 16 18 1 17 -15 18 -15 19 4 2 28 12 37 22 20 7 -11 10 -11
17 0 9 14 27 19 72 22 12 1 22 5 22 8 0 3 11 11 25 17 15 7 25 20 25 32 0 23
28 27 36 5 7 -17 36 -5 66 26 17 17 52 20 76 5 7 -4 12 -2 12 3 0 6 -4 11 -10
11 -5 0 -10 5 -10 11 0 6 6 9 14 6 7 -3 24 0 38 7 13 7 29 11 36 8 6 -2 12 1
12 8 0 6 -4 8 -10 5 -5 -3 -10 -2 -10 3 0 14 32 20 55 12 25 -9 35 -4 35 20 0
10 -3 20 -7 23 -5 2 -3 2 4 1 6 -2 14 4 17 13 4 8 13 13 21 9 8 -3 19 3 24 12
6 10 11 12 11 5 0 -18 20 -16 42 3 14 14 20 14 33 4 15 -12 16 -11 19 12 0 7
13 14 29 15 15 1 25 -2 22 -8 -7 -10 15 -12 39 -3 12 5 14 10 6 19 -9 10 -6
16 9 24 27 15 44 14 35 -1 -5 -9 -2 -8 9 1 16 12 17 12 11 -5 -5 -17 -4 -17 8
-4 7 9 22 14 32 12 14 -3 17 0 13 12 -7 16 8 32 17 18 6 -10 72 -10 82 1 4 4
2 7 -4 7 -7 0 -12 5 -12 10 0 6 7 10 15 10 8 0 15 4 15 8 0 4 9 8 20 8 18 0
18 -2 3 -18 -15 -17 -15 -17 18 -1 44 22 62 25 71 10 6 -8 10 -5 14 10 4 13
11 20 20 16 10 -4 12 0 8 11 -5 14 -2 16 19 11 14 -4 28 -2 31 4 4 6 2 11 -3
11 -6 0 -11 7 -11 15 0 21 16 19 38 -6 14 -15 26 -18 45 -14 15 4 25 10 24 14
-2 7 40 51 49 51 3 0 4 -7 0 -15 -7 -19 44 -21 62 -3 11 11 25 15 81 22 13 1
34 11 46 22 13 12 35 19 58 18 20 -1 38 4 41 11 2 7 18 11 35 10 17 -1 31 2
31 8 0 5 16 7 35 5 25 -3 35 0 35 10 0 9 7 13 19 9 14 -3 18 -1 14 9 -3 8 0
14 7 14 6 0 9 4 6 9 -3 5 1 12 10 15 12 4 14 1 9 -14 -5 -16 -2 -20 20 -20 14
0 28 6 31 14 3 9 16 13 32 11 15 -2 37 3 48 10 12 8 41 15 64 17 22 1 44 7 48
13 4 7 25 15 47 18 22 4 41 10 43 15 1 5 23 7 48 5 39 -4 46 -2 51 16 6 23 11
25 32 12 8 -5 24 -5 35 -1 47 18 61 23 69 22 4 -1 7 2 7 8 0 5 5 10 10 10 6 0
10 -7 10 -15 0 -13 4 -12 21 4 12 11 18 24 15 30 -4 7 -1 9 8 5 8 -3 17 -13
21 -22 5 -14 7 -14 15 -2 14 21 12 30 -5 30 -8 0 -15 4 -15 9 0 12 41 5 49 -7
3 -5 14 -11 23 -15 13 -5 19 0 24 18 3 14 10 25 14 25 5 0 15 3 24 6 11 4 16
1 16 -10 0 -20 16 -21 23 -2 4 9 14 12 27 9 16 -4 19 -2 14 11 -3 9 -10 16
-15 16 -5 0 -9 6 -9 14 0 10 9 13 28 11 44 -6 57 -9 64 -20 4 -6 8 -2 8 8 0 9
-6 17 -14 17 -8 0 -16 7 -20 15 -4 12 0 14 19 11 14 -3 25 0 25 5 0 7 12 8 30
4 23 -5 30 -3 28 7 -2 7 3 12 10 10 6 -1 12 8 12 19 0 18 2 19 15 9 23 -19 28
-6 7 18 -11 12 -22 18 -26 15 -8 -9 0 42 9 57 4 6 11 8 16 5 5 -4 9 -2 9 3 0
6 9 8 20 5 11 -3 20 -1 20 4 0 5 7 10 15 10 8 0 15 -6 15 -13 0 -6 12 -14 26
-17 18 -3 24 -1 20 9 -3 8 -1 14 4 14 6 0 10 7 10 15 0 8 9 15 20 15 11 0 20
7 20 15 0 8 7 15 15 15 8 0 12 6 9 14 -3 8 -1 17 4 20 6 3 13 -1 16 -9 4 -12
9 -13 24 -4 13 8 17 20 14 46 -4 32 -2 34 16 29 15 -5 20 -3 18 9 -1 9 -8 20
-15 25 -10 6 -9 13 5 35 10 15 20 37 21 49 2 11 9 25 15 31 7 7 9 2 6 -17 -7
-37 9 -26 17 12 4 17 11 30 16 30 5 0 18 9 29 20 11 11 30 20 43 20 18 0 19 2
7 10 -13 8 -13 10 1 10 9 0 23 -9 30 -21 9 -13 20 -18 31 -14 10 4 16 11 13
16 -3 4 -13 5 -22 2 -10 -4 -14 -2 -10 4 4 6 2 13 -5 15 -7 3 -9 11 -3 24 4
10 7 25 6 32 -2 10 20 17 34 10 2 -2 11 6 19 17 8 11 18 17 21 13 4 -4 23 4
41 19 19 14 46 26 61 27 34 2 90 42 99 70 4 11 13 26 20 34 8 7 14 22 14 31 0
20 -23 44 -33 35 -8 -9 -20 63 -12 75 3 6 -4 15 -17 20 -13 6 -19 10 -14 10 5
1 3 8 -4 16 -9 11 -10 19 -2 27 13 13 35 1 26 -14 -4 -6 -1 -9 7 -6 8 3 15 13
15 24 1 10 2 25 3 32 1 8 6 10 14 6 6 -4 3 2 -7 14 -11 12 -16 22 -11 22 4 0
3 6 -2 13 -6 6 -13 20 -17 31 -5 14 -2 17 9 12 9 -3 18 1 22 10 4 11 8 12 13
4 5 -8 12 -7 24 5 10 10 16 12 16 4 0 -8 3 -9 14 0 7 6 21 9 30 5 11 -4 16 -1
16 10 0 9 3 15 8 15 22 -4 31 3 25 17 -5 14 -3 15 15 5 28 -15 42 -14 42 4 0
8 7 15 15 15 8 0 15 6 15 13 0 15 36 48 44 40 3 -4 6 3 6 13 0 11 7 29 15 40
18 24 19 38 2 31 -8 -3 -14 1 -14 8 0 8 7 11 15 7 12 -4 14 -1 9 12 -4 10 -7
22 -7 27 0 5 -7 9 -16 9 -9 0 -18 9 -21 21 -3 12 -11 18 -19 15 -8 -3 -14 -2
-14 2 0 12 -54 40 -67 35 -8 -3 -13 3 -13 14 -1 17 -1 17 -15 -1 -8 -11 -15
-15 -15 -8 0 16 -72 35 -81 20 -4 -6 -9 -3 -13 9 -5 16 -14 20 -37 18 -17 -1
-34 -6 -38 -11 -3 -6 -15 -9 -26 -9 -11 0 -26 -4 -33 -9 -7 -5 -15 -6 -18 -3
-4 3 -13 0 -21 -8 -18 -19 -28 -19 -47 1 -14 14 -17 13 -27 -10 -13 -28 -39
-25 -39 5 0 11 -10 24 -22 29 -22 8 -10 15 21 11 7 -2 10 2 6 8 -3 6 1 11 9
11 9 0 16 4 16 10 0 6 -9 6 -24 0 -25 -9 -51 -8 -62 3 -4 4 0 7 9 7 10 0 17 7
17 15 0 8 -4 15 -10 15 -5 0 -10 -4 -10 -10 0 -15 -47 -12 -63 4 -12 12 -20
11 -55 -9 -27 -15 -44 -20 -48 -13 -4 6 0 14 7 20 10 6 7 8 -11 6 -14 -2 -24
-9 -23 -15 2 -7 -4 -10 -12 -7 -8 4 -15 12 -15 19 0 7 -15 22 -34 33 -19 11
-40 33 -48 48 -17 36 -42 46 -34 13z m-11419 -1357 c-3 -9 -3 -13 1 -9 4 4 14
1 23 -7 24 -20 55 -25 69 -10 20 22 45 5 38 -27 -3 -17 -1 -29 7 -32 9 -3 9
-7 0 -18 -17 -18 -16 -51 2 -75 17 -23 20 -43 3 -26 -15 15 -28 15 -28 1 0 -5
4 -8 9 -5 5 3 11 -6 14 -21 4 -20 -3 -34 -30 -62 -31 -32 -36 -34 -44 -18 -14
24 -33 22 -26 -3 3 -11 1 -18 -4 -14 -5 3 -9 -2 -9 -10 0 -9 4 -16 8 -16 12 0
13 -52 1 -67 -10 -11 -15 -11 -30 3 -10 9 -15 22 -12 30 3 10 -2 14 -18 14
-18 0 -21 3 -10 9 8 5 22 8 31 6 13 -2 15 3 12 26 -2 17 -9 28 -16 26 -6 -3
-10 -10 -8 -16 1 -6 -2 -11 -8 -11 -5 0 -9 11 -8 24 2 21 6 23 35 20 19 -2 33
0 33 6 0 7 7 7 21 -1 17 -9 23 -8 30 2 11 18 11 26 0 34 -11 6 -61 -15 -61
-27 0 -4 -4 -8 -10 -8 -5 0 -10 6 -10 14 0 21 -19 30 -34 17 -18 -15 -49 -3
-41 17 3 8 0 21 -6 28 -9 11 -5 13 18 11 15 -1 31 -6 35 -11 4 -6 10 3 14 20
4 16 12 32 18 36 8 6 8 8 -1 8 -6 0 -18 -7 -27 -15 -23 -23 -37 -18 -30 11 5
18 1 29 -12 40 -18 15 -18 15 4 11 19 -5 21 -3 11 9 -10 12 -9 16 9 20 12 4
20 13 19 25 -2 23 -10 24 -27 4 -10 -12 -16 -13 -26 -4 -15 12 -9 33 7 24 5
-4 12 1 15 9 3 9 12 16 20 16 8 0 14 5 14 11 0 5 5 7 11 4 6 -4 8 -14 4 -23z
m-1015 -8463 c0 -5 6 -7 13 -3 7 5 6 0 -3 -11 -14 -17 -13 -18 26 -12 l41 7 7
-42 c4 -24 3 -44 -2 -46 -12 -4 -3 -42 8 -42 18 0 22 -41 6 -53 -13 -10 -14
-19 -6 -46 7 -25 6 -37 -1 -42 -6 -4 -9 -13 -7 -20 3 -8 1 -26 -3 -41 -4 -16
-4 -28 0 -28 5 0 6 -20 4 -44 -3 -26 -1 -46 6 -50 7 -5 8 -14 3 -24 -5 -9 -8
-33 -8 -54 1 -20 -2 -34 -6 -31 -5 2 -8 -1 -8 -6 0 -6 5 -11 10 -11 13 0 13
-77 0 -85 -6 -3 -7 1 -4 12 5 16 4 16 -7 -1 -9 -15 -9 -24 3 -45 13 -23 16
-46 8 -53 -4 -4 -8 -48 -11 -113 -2 -36 -8 -64 -17 -70 -14 -11 -7 -45 9 -45
14 0 11 -57 -4 -72 -22 -21 -23 -24 -10 -39 14 -18 12 -34 -10 -78 -9 -18 -13
-39 -10 -45 4 -6 6 -19 5 -28 -2 -10 2 -18 9 -18 7 0 5 -9 -6 -26 -16 -25 -16
-26 5 -19 17 5 21 3 18 -6 -3 -8 -12 -14 -20 -13 -19 2 -17 -87 3 -112 12 -16
12 -17 -3 -11 -19 7 -34 -8 -18 -18 15 -9 12 -25 -5 -25 -17 0 -19 -12 -5 -26
7 -7 4 -16 -10 -29 -22 -20 -27 -40 -7 -32 14 5 21 -49 7 -58 -6 -4 -10 -15
-10 -25 0 -10 -7 -26 -16 -35 -13 -13 -14 -18 -4 -31 10 -11 10 -20 1 -41 -7
-14 -14 -55 -16 -90 -3 -36 -7 -69 -10 -74 -4 -5 1 -6 10 -3 13 5 15 2 9 -22
-3 -16 -12 -39 -20 -50 -7 -12 -13 -30 -13 -40 1 -52 -5 -84 -15 -84 -6 0 -6
-4 1 -11 9 -9 7 -18 -5 -37 -12 -19 -13 -27 -4 -30 7 -2 9 -9 5 -15 -4 -7 -6
-26 -4 -44 2 -25 -2 -33 -13 -33 -19 0 -21 -16 -3 -23 9 -4 9 -8 -2 -15 -10
-7 -12 -33 -9 -111 2 -55 0 -101 -4 -101 -10 0 -30 -78 -23 -90 3 -6 1 -10 -5
-10 -6 0 -10 -10 -9 -22 2 -13 0 -29 -4 -35 -6 -9 -3 -11 7 -7 11 4 16 0 16
-12 0 -9 -3 -14 -7 -11 -3 4 -13 -2 -20 -13 -12 -16 -12 -24 -3 -35 7 -8 10
-21 7 -29 -3 -7 0 -19 6 -26 9 -10 8 -12 -5 -7 -19 7 -21 1 -18 -45 1 -16 -3
-28 -9 -28 -6 0 -11 -5 -11 -11 0 -5 5 -7 10 -4 6 3 10 2 10 -4 0 -5 -5 -13
-10 -16 -6 -4 -8 -11 -5 -16 4 -5 2 -9 -4 -9 -5 0 -10 -17 -10 -37 0 -44 -5
-70 -13 -78 -3 -4 -4 -24 -1 -46 4 -30 1 -44 -13 -60 -10 -12 -17 -32 -16 -45
2 -13 -1 -24 -6 -24 -5 0 -9 -14 -9 -30 0 -18 -7 -36 -18 -44 -11 -8 -18 -25
-17 -45 0 -17 -4 -31 -10 -31 -6 0 -8 -11 -4 -27 5 -17 3 -29 -6 -35 -11 -6
-11 -10 1 -17 11 -7 11 -12 -2 -32 -9 -13 -21 -46 -28 -74 -6 -27 -18 -60 -26
-73 -7 -12 -11 -27 -8 -32 3 -5 1 -11 -5 -15 -6 -4 -8 -10 -5 -15 3 -5 1 -11
-4 -15 -6 -3 -7 -13 -4 -22 5 -13 2 -15 -11 -10 -9 4 -15 3 -11 -2 3 -5 -1
-15 -8 -23 -8 -7 -12 -18 -10 -25 11 -31 -48 -15 -82 23 -5 6 -18 14 -29 18
-14 5 -17 2 -12 -9 8 -23 -31 -19 -44 5 -6 10 -16 17 -23 14 -21 -8 -67 45
-67 77 0 30 -23 59 -46 59 -16 0 -38 46 -35 72 2 13 -2 16 -15 11 -10 -4 -15
-2 -11 4 3 5 -3 17 -14 26 -10 9 -19 26 -19 37 0 11 -6 20 -12 21 -10 0 -10 2
0 6 6 2 12 9 12 15 0 6 -6 8 -14 5 -11 -4 -17 7 -24 40 -6 25 -8 53 -5 62 4
12 3 13 -5 3 -7 -11 -11 -8 -17 10 -4 12 -7 27 -6 32 1 4 -3 24 -10 44 -10 30
-9 36 5 44 9 5 16 16 16 25 0 12 -3 13 -13 4 -16 -13 -28 -5 -21 14 3 7 1 16
-5 19 -5 4 -8 25 -5 48 2 27 -2 50 -11 65 -14 20 -14 23 -1 23 10 0 13 6 10
15 -4 10 0 15 11 15 14 0 15 3 5 15 -6 8 -9 19 -5 24 3 6 -3 40 -15 77 -24 79
-25 104 -5 104 21 0 19 9 -5 28 -20 16 -20 18 -5 50 9 18 14 39 11 48 -4 12
-2 12 14 4 18 -10 20 -8 18 19 -1 16 -6 27 -10 25 -4 -3 -8 -3 -8 0 0 2 -3 12
-7 22 -4 12 -3 15 5 10 7 -4 12 -1 12 8 0 8 -7 19 -16 24 -9 5 -14 15 -10 21
4 6 12 9 17 6 5 -4 9 -2 9 3 0 6 -6 12 -13 15 -8 3 -13 16 -11 29 1 12 3 27 3
31 1 5 7 5 14 2 6 -4 2 2 -10 13 -27 24 -29 34 -5 25 15 -6 15 -4 -2 15 -11
12 -15 22 -10 22 5 0 10 19 10 43 1 23 4 61 7 84 3 24 2 45 -3 48 -10 6 18 65
31 65 6 0 6 -6 0 -17 -8 -15 -5 -18 20 -18 24 0 28 3 23 20 -4 11 -18 30 -33
42 -22 18 -24 22 -9 28 12 5 15 17 13 48 -3 47 8 68 33 61 9 -2 8 0 -4 7 -16
8 -20 19 -18 47 2 20 4 39 5 42 1 3 1 9 0 14 -1 4 4 14 10 22 6 8 8 14 3 14
-5 0 -4 4 3 8 6 4 13 36 15 72 3 57 6 65 23 66 38 3 40 5 21 19 -11 8 -15 15
-10 15 6 0 11 7 11 15 0 8 -5 15 -10 15 -5 0 -2 11 6 24 9 13 18 40 20 59 2
20 9 42 16 50 9 12 9 17 0 22 -8 6 -7 10 4 17 9 5 14 15 11 23 -4 8 -1 15 5
15 6 0 11 7 11 15 0 8 5 15 11 15 6 0 9 9 6 20 -3 11 -1 20 5 20 6 0 8 7 5 15
-4 8 -2 17 3 20 7 4 6 13 0 26 -9 16 -6 22 20 38 27 16 29 20 15 31 -19 16
-19 31 0 56 15 19 15 19 30 0 15 -19 15 -19 35 2 12 12 17 22 13 22 -4 0 0 5
10 11 9 5 17 14 17 19 0 16 -40 11 -46 -5 -4 -8 -10 -12 -15 -9 -13 8 -11 24
4 21 6 -1 11 4 10 11 -2 6 4 12 12 12 17 0 56 20 66 33 3 5 5 23 2 40 -2 21 2
36 13 44 19 14 9 37 -13 29 -8 -4 -11 -1 -8 5 4 6 13 8 20 5 17 -6 27 18 12
33 -8 8 -8 11 1 11 7 0 12 -4 12 -8 0 -4 15 -9 33 -10 32 -1 32 -1 10 15 -26
18 -31 35 -7 26 13 -5 15 -2 9 15 -5 16 -2 22 9 22 18 0 19 4 10 37 -4 13 -10
21 -14 18 -4 -3 -10 1 -13 9 -6 15 24 17 35 1 4 -5 9 -7 13 -4 3 3 -4 18 -15
32 l-21 27 20 22 c24 25 27 44 9 51 -7 2 -10 7 -6 11 3 4 20 -6 36 -24 32 -33
35 -32 46 12 7 29 -11 49 -25 27 -18 -29 -16 -2 2 31 11 19 18 28 16 20 -2 -8
7 -20 21 -27 37 -19 47 -16 26 9 -17 19 -17 21 -1 15 17 -6 24 7 8 17 -11 7
-2 56 11 56 5 0 6 5 2 11 -4 8 1 9 16 4 15 -5 20 -4 16 4 -4 6 0 11 8 11 9 0
16 5 16 11 0 5 -4 7 -10 4 -14 -9 -12 17 4 38 14 18 32 24 21 7 -3 -5 -2 -10
4 -10 21 0 19 18 -4 30 -13 7 -22 16 -20 21 6 9 45 -1 45 -12 0 -20 18 -7 23
17 3 16 0 28 -9 31 -9 3 -14 20 -13 47 0 37 1 39 10 16 15 -36 49 -55 49 -26
0 7 -10 21 -22 30 l-23 17 22 -4 c13 -3 24 1 27 9 3 8 15 14 26 14 11 0 20 4
20 10 0 5 -7 6 -17 3 -12 -5 -14 -3 -8 8 5 8 -4 3 -19 -11 -20 -18 -25 -20
-20 -7 4 12 1 17 -12 18 -15 0 -15 2 -4 6 8 3 18 11 22 17 5 8 8 7 8 -2 0 -9
4 -10 19 0 15 9 23 9 37 -3 11 -9 15 -9 10 -1 -4 7 2 25 13 41 12 16 21 33 21
38 0 4 -5 1 -10 -7 -5 -8 -10 -10 -10 -5 1 16 26 45 34 38 4 -4 4 0 0 10 -3 9
-4 24 0 32 6 17 26 20 26 4z m-94 -5008 c-8 -12 31 -44 44 -36 5 3 8 10 6 14
-8 12 55 11 76 0 10 -6 16 -14 13 -20 -4 -6 -13 -5 -25 1 -10 5 -26 7 -35 4
-14 -6 -14 -8 2 -21 17 -14 17 -14 -5 -10 -12 3 -20 1 -16 -4 9 -16 -6 -31
-21 -19 -19 16 -49 2 -34 -16 9 -11 8 -14 -6 -14 -13 0 -16 6 -13 23 4 20 1
23 -19 19 -13 -2 -26 -9 -30 -15 -4 -6 0 -8 9 -5 11 5 15 -1 14 -23 -1 -16 -5
-29 -10 -29 -4 0 -6 -7 -3 -14 4 -10 1 -13 -9 -9 -16 6 -19 23 -4 23 6 0 5 8
-2 19 -7 11 -16 18 -20 15 -4 -3 -16 0 -25 5 -15 9 -13 10 12 11 22 0 26 3 17
12 -6 6 -32 11 -57 11 -31 0 -45 5 -45 14 0 7 5 14 10 14 6 1 15 3 20 4 6 1
17 3 26 4 8 0 12 6 9 11 -7 11 -6 12 53 15 23 1 48 7 54 13 14 14 21 16 14 3z"/>
</g>
</svg>
